<?xml version="1.0" encoding="utf-8"?>
<!-- Generator: Adobe Illustrator 22.1.0, SVG Export Plug-In . SVG Version: 6.00 Build 0)  -->
<svg version="1.1" id="Layer_1" xmlns="http://www.w3.org/2000/svg" xmlns:xlink="http://www.w3.org/1999/xlink" x="0px" y="0px"
	 viewBox="0 0 896 299.7" style="enable-background:new 0 0 896 299.7;" xml:space="preserve">
<style type="text/css">
	.st0{fill:#060709;}
	.st1{fill:#FDFEFF;}
	.st2{fill:none;stroke:#FFFFFF;stroke-miterlimit:10;}
	.st3{fill:none;stroke:#4263AE;stroke-width:2;stroke-miterlimit:10;}
	.st4{fill:#4263AE;}
	.st5{fill:none;stroke:#FCEE1F;stroke-linecap:round;stroke-miterlimit:10;}
	.st6{fill:#FCEE1F;}
	.st7{fill:none;stroke:#EB2227;stroke-width:2;stroke-miterlimit:10;}
	.st8{fill:#EB2227;}
</style>
<rect id="bckgrnd" class="st0" width="896" height="299.7"/>
<g>
	<path class="st1" d="M371.5,231.6c-0.6,0.4-1.3,0.6-2,0.6c-0.7,0-1.4-0.2-2-0.6c-0.6,0.4-1.1,0.6-1.6,0.6c-0.5,0-0.9,0-1.2-0.1
		c-0.3-0.1-0.6-0.2-0.8-0.4c-0.5-0.3-0.7-0.8-0.7-1.3c0-0.3,0.1-0.5,0.2-0.7c0.3,0.2,0.6,0.3,1,0.3c1,0,1.7-0.5,2.1-1.5v-9.5
		c0-0.6-0.1-1-0.3-1.3c-0.3-0.5-0.9-1-1.8-1.4c0.8-0.4,1.3-0.8,1.5-1.1c0.4-0.5,0.6-1.1,0.6-1.7v-8.2c-0.4-1-1.1-1.5-2.1-1.5
		c-0.4,0-0.7,0.1-1,0.3c-0.1-0.2-0.2-0.4-0.2-0.7c0-0.3,0.1-0.5,0.2-0.7c0.1-0.2,0.3-0.4,0.5-0.6c0.5-0.4,1.1-0.5,1.8-0.5
		c0.7,0,1.3,0.2,1.9,0.6c0.6-0.4,1.3-0.6,2-0.6c0.7,0,1.4,0.2,2,0.6c1.1-0.5,2.4-0.8,3.9-0.8c1.4,0,2.7,0.2,3.7,0.6
		c1,0.4,2,0.9,2.8,1.6c1.8,1.4,2.9,3.2,3.5,5.5c0.2,0.9,0.8,1.6,1.6,2.2c-0.9,0.6-1.5,1.4-1.8,2.5c-0.3,1.1-0.8,2.2-1.5,3.1
		c-0.7,1-1.5,1.8-2.4,2.4c-1.8,1.3-3.8,2-5.8,2c-0.9,0-1.8-0.1-2.8-0.4v7.4c0.3,0.8,1,1.2,1.9,1.5c0.3,0.1,0.5,0.1,0.8,0.1
		c0.3,0,0.6-0.1,0.8-0.3c0.1,0.2,0.2,0.4,0.2,0.7c0,0.3-0.1,0.5-0.3,0.7c-0.2,0.2-0.4,0.4-0.7,0.6c-0.6,0.4-1.3,0.5-2,0.5
		C372.8,232.3,372.1,232,371.5,231.6z M368,226.7c0.6-0.2,0.9-1.1,1-2.5c0.1-1.5,0.1-3.5,0.1-6c0-2.6,0-4.3,0-5.1c0-0.8,0-1.5,0-2.1
		c0-1.5-0.2-2.5-0.4-2.8c-0.2-0.3-0.4-0.5-0.6-0.6c0,4.5-0.1,7.1-0.2,7.7c-0.2,0.5-0.6,0.9-1.2,1.1c0.7,0.3,1.1,0.6,1.2,1
		c0.1,0.6,0.2,2.9,0.2,6.8V226.7z M372.7,216c0,0.9,0.3,1.6,0.9,2.1c0.5,0.5,1.2,0.7,2,0.7c1.3,0,2.2-0.5,2.7-1.6
		c0.2-0.4,0.3-0.8,0.3-1.4v-8.8c0-0.9-0.3-1.7-1-2.2c-0.6-0.5-1.1-0.7-1.7-0.7c-0.6,0-1,0.1-1.4,0.2c-0.4,0.1-0.7,0.3-1,0.6
		c-0.6,0.5-0.9,1.3-0.9,2.3V216z M379.7,218c0.3-0.1,0.5-0.4,0.8-1.1c0.3-0.7,0.5-1.5,0.6-2.4c0.1-0.9,0.3-1.6,0.5-2
		c0.2-0.4,0.6-0.7,1.1-0.9c-0.8-0.3-1.3-1.1-1.5-2.4c-0.2-1.3-0.5-2.2-0.7-2.8c-0.3-0.6-0.6-0.9-0.8-1c0.4,1.1,0.6,3.2,0.6,6.2
		c0,2-0.1,3.6-0.3,4.6C379.9,217.3,379.8,217.9,379.7,218z"/>
	<path class="st1" d="M409.2,225.5c0.2,0.6,0.6,1.1,1.3,1.6c-0.4,0.2-0.9,0.6-1.5,1.3c-0.6,0.7-1.3,1.3-2,1.8
		c-0.7,0.5-1.5,1-2.2,1.3c-1.3,0.6-2.8,0.9-4.3,0.9c-1.6,0-3-0.2-4.2-0.6c-1.3-0.4-2.3-1-3.1-1.7c-1.6-1.4-2.4-3.3-2.4-5.6v-5.4
		c0-0.6-0.1-1-0.3-1.3c-0.3-0.5-0.9-1-1.8-1.4c0.8-0.4,1.3-0.8,1.5-1.1c0.4-0.5,0.6-1.1,0.6-1.7v-8.2c-0.4-1-1.1-1.5-2.1-1.5
		c-0.4,0-0.7,0.1-1,0.3c-0.1-0.2-0.2-0.4-0.2-0.7c0-0.3,0.1-0.5,0.2-0.7c0.1-0.2,0.3-0.4,0.5-0.6c0.5-0.4,1.1-0.5,1.8-0.5
		c0.7,0,1.3,0.2,1.9,0.6c0.6-0.4,1.3-0.6,2-0.6c0.7,0,1.4,0.2,2,0.6c0.6-0.4,1.1-0.6,1.6-0.6c0.5,0,0.9,0,1.2,0.1
		c0.3,0.1,0.6,0.2,0.8,0.4c0.5,0.3,0.7,0.8,0.7,1.3c0,0.3-0.1,0.5-0.2,0.7c-0.3-0.2-0.6-0.3-1-0.3c-1,0-1.7,0.5-2.1,1.5v8.2
		c0,0.6,0.1,1.1,0.4,1.4c0.4,0.5,1,1,1.7,1.4c-0.8,0.5-1.4,0.8-1.6,1.1c-0.3,0.5-0.5,1-0.5,1.6v5.4c0,1.6,0.5,2.9,1.6,3.9
		c1,0.9,2.1,1.4,3.3,1.4c1.3,0,2.4-0.4,3.4-1.3c1-0.9,1.5-2,1.5-3.3v-6.2c0-0.6-0.1-1-0.3-1.3c-0.3-0.4-0.9-0.8-1.8-1.3
		c0.8-0.4,1.3-0.8,1.5-1.1c0.4-0.5,0.6-1,0.6-1.5v-8.7c-0.5-0.8-1.1-1.2-1.8-1.2c-0.7,0-1.2,0.1-1.6,0.3c-0.1-0.2-0.2-0.6-0.2-1
		c0-0.4,0.2-0.8,0.5-1.1c0.4-0.3,0.8-0.5,1.4-0.5c0.6,0,1.1,0.2,1.5,0.5c0.4-0.3,0.9-0.5,1.4-0.5c0.5,0,1,0.2,1.4,0.5
		c0.4-0.3,0.9-0.5,1.5-0.5c0.5,0,1,0.2,1.3,0.5c0.3,0.3,0.5,0.7,0.5,1.1c0,0.4-0.1,0.7-0.2,0.9c-0.3-0.2-0.9-0.3-1.6-0.3
		c-0.7,0-1.3,0.4-1.8,1.2v8.7c0,0.6,0.1,1,0.3,1.2c0.3,0.4,1,0.8,2,1.3c-1,0.6-1.6,0.9-1.8,1.2c-0.3,0.3-0.5,0.8-0.5,1.4V225.5z
		 M393.1,226.7c0.1-0.7,0.2-2.9,0.2-6.7c0-3.8,0-6.1,0-7c0-0.8,0-1.5,0-2.1c0-1.5-0.2-2.5-0.4-2.8c-0.2-0.3-0.4-0.5-0.6-0.6
		c0,4.5-0.1,7.1-0.2,7.7c-0.2,0.5-0.6,0.9-1.2,1.1c0.7,0.3,1.1,0.6,1.2,1c0.1,0.6,0.2,2,0.2,4s0,3.3,0.1,3.7
		c0.1,0.4,0.1,0.7,0.2,0.9C392.7,226.4,392.9,226.6,393.1,226.7z"/>
	<path class="st1" d="M422.9,231.6c-0.6,0.4-1.3,0.6-2,0.6c-0.7,0-1.4-0.2-2-0.6c-0.6,0.4-1.1,0.6-1.6,0.6c-0.5,0-0.9,0-1.2-0.1
		c-0.3-0.1-0.6-0.2-0.8-0.4c-0.5-0.3-0.7-0.8-0.7-1.3c0-0.3,0.1-0.5,0.2-0.7c0.3,0.2,0.6,0.3,1,0.3c1,0,1.7-0.5,2.1-1.5v-9.5
		c0-0.6-0.1-1-0.3-1.3c-0.3-0.5-0.9-1-1.8-1.4c0.8-0.4,1.3-0.8,1.5-1.1c0.4-0.5,0.6-1.1,0.6-1.7v-8.2c-0.4-1-1.1-1.5-2.1-1.5
		c-0.4,0-0.7,0.1-1,0.3c-0.1-0.2-0.2-0.4-0.2-0.7c0-0.3,0.1-0.5,0.2-0.7c0.1-0.2,0.3-0.4,0.5-0.6c0.5-0.4,1.1-0.5,1.8-0.5
		c0.7,0,1.3,0.2,1.9,0.6c0.6-0.4,1.3-0.6,2-0.6c0.7,0,1.4,0.2,2,0.6c1.3-0.6,2.7-0.8,4.3-0.8c1.6,0,2.9,0.2,4,0.5
		c1.1,0.3,2,0.8,2.8,1.4c1.6,1.2,2.5,2.9,2.9,5c0.1,1,0.7,1.7,1.6,2.2c-0.9,0.6-1.5,1.5-1.8,2.7c-0.6,2.6-2,4.2-4.2,4.8
		c1.2,0.3,2.1,1.1,2.9,2.2c0.8,1.1,1.1,2.5,1.1,4v1.9c0,1.9,0.5,3.1,1.6,3.6c0.3,0.2,0.7,0.3,1.1,0.3c0.4,0,0.7-0.1,1-0.3
		c0.1,0.2,0.2,0.4,0.2,0.7c0,0.3-0.1,0.5-0.2,0.7c-0.1,0.2-0.3,0.4-0.5,0.6c-0.4,0.4-0.9,0.5-1.5,0.5c-0.6,0-1.1-0.2-1.6-0.5
		c-1,0.6-1.9,0.7-2.7,0.2c-0.3,0.2-0.7,0.3-1,0.3c-0.4,0-0.7-0.1-1-0.3c-0.3-0.2-0.6-0.5-0.9-0.9c-0.5-0.9-0.8-2.3-0.8-4.1v-1.4
		c0-3-0.8-4.9-2.3-5.8c-0.5-0.3-1.1-0.4-1.8-0.4h-2v9.5c0.3,0.9,0.9,1.4,1.8,1.4c0.4,0,0.7-0.1,1-0.3c0.1,0.2,0.2,0.5,0.2,0.9
		c0,0.4-0.2,0.7-0.5,1.1c-0.4,0.4-0.9,0.5-1.6,0.5C424.1,232.3,423.4,232.1,422.9,231.6z M419.3,226.7c0.6-0.2,0.9-1.1,1-2.5
		c0.1-1.5,0.1-3.5,0.1-6c0-2.6,0-4.3,0-5.1c0-0.8,0-1.5,0-2.1c0-1.5-0.2-2.5-0.4-2.8c-0.2-0.3-0.4-0.5-0.6-0.6
		c0,4.5-0.1,7.1-0.2,7.7c-0.2,0.5-0.6,0.9-1.2,1.1c0.7,0.3,1.1,0.6,1.2,1c0.1,0.6,0.2,2.9,0.2,6.8V226.7z M427.4,204.1
		c-2.2,0-3.3,1-3.3,2.9v8c0,0.7,0.2,1.1,0.7,1.4c0.4,0.2,1.1,0.3,2,0.3c0.9,0,1.5-0.1,1.9-0.2c0.4-0.1,0.7-0.3,0.9-0.6
		c0.5-0.6,0.8-1.5,0.8-2.8v-5.7c0-1.6-0.6-2.7-1.8-3.1C428.1,204.2,427.8,204.1,427.4,204.1z M431.3,221.4c0.5,0.6,0.7,1.3,0.7,2.1
		v2.6c0,2.2,0.4,3.3,1.1,3.4c0.2,0,0.4,0,0.6,0c-0.4-0.7-0.6-1.5-0.6-2.3v-2.7c0-1-0.1-1.8-0.4-2.2
		C432.3,221.6,431.8,221.3,431.3,221.4z M431.5,205.4c0.4,0.9,0.5,2.4,0.5,4.4c0,3.4-0.1,5.5-0.4,6.2c0.6-0.1,1.1-1.1,1.4-2.9
		l0.1-0.8c0.1-0.8,0.5-1.4,1.1-1.6c-0.4-0.2-0.7-0.4-0.9-0.6c-0.1-0.3-0.3-0.7-0.4-1.4c-0.1-0.7-0.2-1.2-0.3-1.6
		c-0.1-0.4-0.2-0.7-0.4-1C432,205.7,431.8,205.4,431.5,205.4z"/>
	<path class="st1" d="M449.7,231.6c-0.6,0.4-1.3,0.6-2,0.6c-0.7,0-1.4-0.2-2-0.6c-0.6,0.4-1.1,0.6-1.6,0.6c-0.5,0-0.9,0-1.2-0.1
		c-0.3-0.1-0.6-0.2-0.8-0.4c-0.5-0.3-0.7-0.8-0.7-1.3c0-0.3,0.1-0.5,0.2-0.7c0.3,0.2,0.6,0.3,1,0.3c1,0,1.7-0.5,2.1-1.5v-9.5
		c0-0.6-0.1-1-0.3-1.3c-0.3-0.5-0.9-1-1.8-1.4c0.8-0.4,1.3-0.8,1.5-1.1c0.4-0.5,0.6-1.1,0.6-1.7v-8.2c-0.4-1-1.1-1.5-2.1-1.5
		c-0.4,0-0.7,0.1-1,0.3c-0.1-0.2-0.2-0.4-0.2-0.7c0-0.3,0.1-0.5,0.2-0.7c0.1-0.2,0.3-0.4,0.5-0.6c0.5-0.4,1.1-0.5,1.8-0.5
		c0.7,0,1.3,0.2,1.9,0.6c0.6-0.4,1.3-0.6,2-0.6c0.7,0,1.4,0.2,2,0.6c0.6-0.4,1.1-0.6,1.6-0.6c0.5,0,0.9,0,1.2,0.1
		c0.3,0.1,0.6,0.2,0.8,0.4c0.5,0.3,0.7,0.8,0.7,1.3c0,0.3-0.1,0.5-0.2,0.7c-0.3-0.2-0.6-0.3-1-0.3c-1,0-1.7,0.5-2.1,1.5v8.2
		c0,0.6,0.1,1.1,0.4,1.4c0.4,0.5,1,1,1.7,1.4c-0.8,0.5-1.4,0.8-1.6,1.1c-0.3,0.5-0.5,1-0.5,1.6v9.5c0.4,1,1.1,1.5,2.1,1.5
		c0.4,0,0.7-0.1,1-0.3c0.1,0.2,0.2,0.4,0.2,0.7c0,0.3-0.1,0.5-0.2,0.7c-0.1,0.2-0.3,0.4-0.5,0.6c-0.5,0.4-1.1,0.5-1.8,0.5
		C451,232.3,450.3,232.1,449.7,231.6z M446.2,226.7c0.6-0.2,0.9-1.1,1-2.5c0.1-1.5,0.1-3.5,0.1-6c0-2.6,0-4.3,0-5.1
		c0-0.8,0-1.5,0-2.1c0-1.5-0.2-2.5-0.4-2.8c-0.2-0.3-0.4-0.5-0.6-0.6c0,4.5-0.1,7.1-0.2,7.7c-0.2,0.5-0.6,0.9-1.2,1.1
		c0.7,0.3,1.1,0.6,1.2,1c0.1,0.6,0.2,2.9,0.2,6.8V226.7z"/>
	<path class="st1" d="M465.5,231.7c-0.6,0.4-1.3,0.6-2.1,0.6c-0.8,0-1.5-0.2-2-0.6c-0.6,0.4-1.1,0.6-1.6,0.6c-0.5,0-0.9,0-1.2-0.1
		c-0.3-0.1-0.6-0.2-0.8-0.4c-0.5-0.3-0.8-0.8-0.8-1.3c0-0.3,0.1-0.5,0.2-0.7c0.3,0.2,0.6,0.3,1,0.3c1,0,1.7-0.5,2.1-1.5v-9.5
		c0-0.6-0.1-1-0.3-1.3c-0.4-0.5-1-1-1.8-1.4c0.8-0.4,1.3-0.8,1.5-1.1c0.4-0.5,0.6-1.1,0.6-1.7v-8.2c-0.4-1-1.1-1.5-2.1-1.5
		c-0.5,0-0.8,0.1-1.1,0.3c-0.1-0.2-0.2-0.4-0.2-0.7c0-0.3,0.1-0.5,0.2-0.7c0.1-0.2,0.3-0.4,0.6-0.6c0.5-0.4,1.2-0.5,1.9-0.5
		s1.3,0.2,1.9,0.6c0.6-0.4,1.3-0.6,2.1-0.6c0.8,0,1.5,0.3,2.1,0.8c1.3-0.5,2.8-0.8,4.6-0.8c1.1,0,2.1,0.1,2.9,0.4l1.5,0.5
		c0.2,0.1,0.4,0.1,0.5,0.1c0.3,0,0.5-0.3,0.5-0.8c0-0.1,0-0.4-0.1-0.7c0.3-0.1,0.7-0.1,1.2-0.1c0.5,0,0.9,0.2,1.3,0.6
		c0.3,0.4,0.5,0.9,0.5,1.6c0,0.7-0.1,1.3-0.4,1.7c0.3,0.6,0.5,1.3,0.5,2.1c0,0.8-0.2,1.5-0.7,2.1c0.2,0.4,0.2,0.8,0.2,1.3
		s-0.1,0.8-0.2,1.1c-0.1,0.3-0.2,0.6-0.4,0.8c-0.3,0.4-0.7,0.7-1.2,0.7c-0.4,0-0.8-0.1-1.2-0.3c0.2-0.4,0.2-0.8,0.2-1.3
		c0-0.5,0-0.9-0.1-1.2c0-0.3-0.1-0.7-0.2-1c-0.2-0.8-0.4-1.6-0.8-2.4c-0.8-1.6-2-2.4-3.6-2.4c-2,0-3.4,0.6-4.2,1.8v9
		c0.4,0.2,0.7,0.3,1,0.3c0.3,0,0.6,0,0.8,0c0.2,0,0.4,0,0.6-0.1c0.5-0.1,0.9-0.2,1.1-0.3c0.5-0.3,0.7-0.8,0.7-1.8
		c0-0.9-0.1-1.6-0.4-2.1c0.2-0.2,0.5-0.3,0.9-0.3c0.8,0,1.3,0.4,1.7,1.3c0.1,0.3,0.2,0.7,0.2,1c0,0.4-0.1,0.8-0.2,1.2
		c0.5,0.6,0.7,1.3,0.7,2.2c0,0.8-0.2,1.6-0.7,2.2c0.1,0.4,0.2,0.8,0.2,1.2c0,0.4-0.1,0.7-0.2,1c-0.1,0.3-0.3,0.6-0.5,0.8
		c-0.4,0.4-0.8,0.5-1.2,0.5c-0.3,0-0.6-0.1-0.9-0.3c0.2-0.5,0.4-1,0.4-1.6c0-1.2-0.3-2-0.9-2.2c-0.5-0.2-1.1-0.3-1.8-0.3
		c-0.7,0-1.2,0.1-1.6,0.4v10.3c0.4,1,1.3,1.5,2.5,1.5c0.4,0,0.7-0.1,1-0.3c0.1,0.2,0.2,0.4,0.2,0.7c0,0.3-0.1,0.5-0.2,0.7
		c-0.1,0.2-0.3,0.4-0.6,0.6c-0.5,0.4-1.1,0.5-1.9,0.5C466.8,232.3,466.2,232.1,465.5,231.7z M461.9,226.7c0.6-0.2,0.9-1.1,1-2.5
		c0.1-1.5,0.1-3.5,0.1-6c0-2.6,0-4.3,0-5.1c0-0.8,0-1.5,0-2.1c0-1.5-0.2-2.5-0.4-2.8c-0.2-0.3-0.4-0.5-0.6-0.6
		c0,4.5-0.1,7.1-0.2,7.7c-0.2,0.5-0.6,0.9-1.2,1.1c0.7,0.3,1.1,0.6,1.2,1c0.1,0.6,0.2,2.9,0.2,6.8V226.7z"/>
	<path class="st1" d="M488.6,231.6c-0.6,0.4-1.3,0.6-2,0.6c-0.8,0-1.4-0.2-2-0.6c-0.6,0.4-1.1,0.6-1.6,0.6c-0.5,0-0.9,0-1.2-0.1
		c-0.3-0.1-0.6-0.2-0.8-0.4c-0.5-0.3-0.7-0.8-0.7-1.3c0-0.3,0.1-0.5,0.2-0.7c0.3,0.2,0.6,0.3,1,0.3c1,0,1.7-0.5,2.1-1.5v-9.5
		c0-0.6-0.1-1-0.3-1.3c-0.3-0.5-0.9-1-1.8-1.4c0.8-0.4,1.3-0.8,1.5-1.1c0.4-0.5,0.6-1.1,0.6-1.7v-8.2c-0.4-1-1.1-1.5-2.1-1.5
		c-0.4,0-0.7,0.1-1,0.3c-0.1-0.2-0.2-0.4-0.2-0.7c0-0.3,0.1-0.5,0.2-0.7c0.1-0.2,0.3-0.4,0.5-0.6c0.5-0.4,1.1-0.5,1.8-0.5
		c0.7,0,1.3,0.2,1.9,0.6c0.6-0.4,1.3-0.6,2-0.6c0.7,0,1.4,0.2,2,0.6c0.6-0.4,1.1-0.6,1.6-0.6c0.5,0,0.9,0,1.2,0.1
		c0.3,0.1,0.6,0.2,0.8,0.4c0.5,0.3,0.7,0.8,0.7,1.3c0,0.3-0.1,0.5-0.2,0.7c-0.3-0.2-0.6-0.3-1-0.3c-1,0-1.7,0.5-2.1,1.5v8.2
		c0,0.6,0.1,1.1,0.4,1.4c0.4,0.5,1,1,1.7,1.4c-0.8,0.5-1.4,0.8-1.6,1.1c-0.3,0.5-0.5,1-0.5,1.6v9.5c0.4,1,1.1,1.5,2.1,1.5
		c0.4,0,0.7-0.1,1-0.3c0.1,0.2,0.2,0.4,0.2,0.7c0,0.3-0.1,0.5-0.2,0.7c-0.1,0.2-0.3,0.4-0.5,0.6c-0.5,0.4-1.1,0.5-1.8,0.5
		C489.8,232.3,489.2,232.1,488.6,231.6z M485.1,226.7c0.6-0.2,0.9-1.1,1-2.5c0.1-1.5,0.1-3.5,0.1-6c0-2.6,0-4.3,0-5.1
		c0-0.8,0-1.5,0-2.1c0-1.5-0.2-2.5-0.4-2.8c-0.2-0.3-0.4-0.5-0.6-0.6c0,4.5-0.1,7.1-0.2,7.7c-0.2,0.5-0.6,0.9-1.2,1.1
		c0.7,0.3,1.1,0.6,1.2,1c0.1,0.6,0.2,2.9,0.2,6.8V226.7z"/>
	<path class="st1" d="M502.2,232.3c-0.8,0-1.4-0.2-2-0.6c-0.6,0.4-1.1,0.6-1.6,0.6c-0.5,0-0.9,0-1.2-0.1c-0.3-0.1-0.6-0.2-0.8-0.4
		c-0.5-0.3-0.7-0.8-0.7-1.3c0-0.3,0.1-0.5,0.2-0.7c0.3,0.2,0.6,0.3,1,0.3c1,0,1.7-0.5,2.1-1.5v-9.5c0-0.6-0.1-1-0.3-1.3
		c-0.3-0.5-0.9-1-1.8-1.4c0.8-0.4,1.3-0.8,1.5-1.1c0.4-0.5,0.6-1.1,0.6-1.7v-8.2c-0.4-1-1.1-1.5-2.1-1.5c-0.4,0-0.7,0.1-1,0.3
		c-0.1-0.2-0.2-0.4-0.2-0.7c0-0.3,0.1-0.5,0.2-0.7c0.1-0.2,0.3-0.4,0.5-0.6c0.5-0.4,1.1-0.5,1.8-0.5c0.7,0,1.3,0.2,1.9,0.6
		c0.6-0.4,1.3-0.6,2.1-0.6c0.8,0,1.5,0.3,2.1,0.8c1.2-0.5,2.6-0.8,4.2-0.8c1.2,0,2.2,0.1,3,0.4l1.5,0.5c0.2,0.1,0.4,0.1,0.5,0.1
		c0.3,0,0.5-0.3,0.5-0.8c0-0.1,0-0.4-0.1-0.7c0.3-0.1,0.7-0.1,1.2-0.1c0.5,0,0.9,0.2,1.3,0.6c0.3,0.4,0.5,0.9,0.5,1.6
		c0,0.7-0.1,1.2-0.3,1.5c0.3,0.5,0.5,1.2,0.5,1.9c0,0.7-0.2,1.4-0.7,1.9c0.1,0.4,0.2,0.8,0.2,1.1c0,0.4-0.1,0.7-0.2,1
		c-0.1,0.3-0.2,0.6-0.4,0.8c-0.3,0.4-0.7,0.6-1,0.6c-0.5,0-0.9-0.1-1.3-0.3c0.1-0.3,0.2-0.8,0.2-1.4c0-1.4-0.3-2.7-1-3.8
		c-0.9-1.5-2.2-2.2-3.9-2.2c-0.9,0-1.7,0.2-2.4,0.7c-0.7,0.5-1.2,1.2-1.5,2.1v7.5c0.4,0.3,0.8,0.4,1.1,0.4c0.4,0,0.6,0,0.8,0
		c0.2,0,0.4,0,0.5-0.1c0.5-0.1,0.8-0.2,1.1-0.3c0.5-0.3,0.7-0.9,0.7-1.9c0-0.6-0.1-1-0.4-1.3c0.2-0.2,0.5-0.3,0.9-0.3
		c0.8,0,1.3,0.3,1.7,1.1c0.1,0.2,0.2,0.5,0.2,0.8c0,0.3-0.1,0.7-0.2,1.1c0.5,0.6,0.7,1.3,0.7,2.2s-0.2,1.6-0.7,2.2
		c0.1,0.4,0.2,0.8,0.2,1.2c0,0.4-0.1,0.7-0.2,1c-0.1,0.3-0.3,0.6-0.5,0.8c-0.4,0.4-0.8,0.5-1.2,0.5c-0.3,0-0.6-0.1-0.9-0.3
		c0.2-0.5,0.4-1,0.4-1.6c0-1.2-0.3-2-0.9-2.2c-0.5-0.2-1.1-0.3-1.8-0.3c-0.7,0-1.2,0.1-1.6,0.4v9.7c0.7,1.3,2,2,3.9,2
		c2.2,0,3.6-0.8,4.4-2.3c0.9-1.7,1.4-3.6,1.4-5.5c0-0.6,0-1-0.1-1.3c0.3-0.3,0.6-0.5,0.9-0.5c0.3,0,0.5,0,0.7,0.1
		c0.2,0.1,0.3,0.2,0.4,0.4c0.3,0.3,0.4,0.7,0.4,1.1l-0.1,1c0,0.2,0.1,0.4,0.2,0.6c0.2,0.3,0.3,0.5,0.3,0.8s-0.1,0.5-0.2,0.9
		c0.3,0.2,0.5,0.4,0.7,0.7c0.2,0.3,0.3,0.7,0.3,1c0,0.7-0.3,1.4-0.8,2c0.2,0.4,0.4,1,0.4,1.7c0,0.7-0.2,1.4-0.6,1.9
		c-0.4,0.5-0.9,0.8-1.5,0.8c-0.3,0-0.7,0-1-0.1c0-0.3,0.1-0.6,0.1-0.9c0-0.6-0.2-0.9-0.7-0.9c-0.5,0-1.1,0.1-1.6,0.4
		c-1.3,0.6-2.7,0.9-4.4,0.9c-1.6,0-3-0.2-4.2-0.7C503.7,232,503,232.3,502.2,232.3z M500.6,226.7c0.6-0.2,0.9-1.1,1-2.5
		c0.1-1.5,0.1-3.5,0.1-6c0-2.6,0-4.3,0-5.1c0-0.8,0-1.5,0-2.1c0-1.5-0.2-2.5-0.4-2.8c-0.2-0.3-0.4-0.5-0.6-0.6
		c0,4.5-0.1,7.1-0.2,7.7c-0.2,0.5-0.6,0.9-1.2,1.1c0.7,0.3,1.1,0.6,1.2,1c0.1,0.6,0.2,2.9,0.2,6.8V226.7z M505,226.5
		C505,226.6,505,226.6,505,226.5L505,226.5z"/>
	<path class="st1" d="M527.1,232.3c-0.8,0-1.4-0.2-2-0.6c-0.6,0.4-1.1,0.6-1.6,0.6c-0.5,0-0.9,0-1.2-0.1c-0.3-0.1-0.6-0.2-0.8-0.4
		c-0.5-0.3-0.7-0.8-0.7-1.3c0-0.3,0.1-0.5,0.2-0.7c0.3,0.2,0.6,0.3,1,0.3c1,0,1.7-0.5,2.1-1.5v-9.5c0-0.6-0.1-1-0.3-1.3
		c-0.3-0.5-0.9-1-1.8-1.4c0.8-0.4,1.3-0.8,1.5-1.1c0.4-0.5,0.6-1.1,0.6-1.7v-8.2c-0.4-1-1.1-1.5-2.1-1.5c-0.4,0-0.7,0.1-1,0.3
		c-0.1-0.2-0.2-0.4-0.2-0.7c0-0.3,0.1-0.5,0.2-0.7c0.1-0.2,0.3-0.4,0.5-0.6c0.5-0.4,1.1-0.5,1.8-0.5c0.7,0,1.3,0.2,1.9,0.6
		c0.6-0.4,1.2-0.6,1.9-0.6c0.7,0,1.3,0.2,1.9,0.5c1.4-0.5,2.6-0.7,3.8-0.7c1.2,0,2.2,0.1,3.1,0.2c0.9,0.1,1.8,0.4,2.6,0.7
		c0.8,0.4,1.6,0.8,2.3,1.4c0.7,0.6,1.4,1.3,1.9,2.2c1.2,1.9,2,4.4,2.3,7.5c0.1,0.8,0.2,1.3,0.4,1.6c0.4,0.5,0.9,0.9,1.5,1.1
		c-0.7,0.3-1.1,0.6-1.3,0.9c-0.3,0.5-0.6,1.1-0.6,1.9c-0.4,4.3-1.7,7.6-3.9,10c-2.1,2.3-4.8,3.4-8.2,3.4c-1.3,0-2.6-0.2-3.6-0.7
		C528.6,232.1,527.9,232.3,527.1,232.3z M525.5,226.7c0.6-0.2,0.9-1.1,1-2.5c0.1-1.5,0.1-3.5,0.1-6c0-2.6,0-4.3,0-5.1
		c0-0.8,0-1.5,0-2.1c0-1.5-0.2-2.5-0.4-2.8c-0.2-0.3-0.4-0.5-0.6-0.6c0,4.5-0.1,7.1-0.2,7.7c-0.2,0.5-0.6,0.9-1.2,1.1
		c0.7,0.3,1.1,0.6,1.2,1c0.1,0.6,0.2,2.9,0.2,6.8V226.7z M530.2,228.8c0.6,0.7,1.3,1.1,2.2,1.1c0.9,0,1.7-0.2,2.4-0.6
		c0.7-0.4,1.2-1,1.7-1.9c0.9-1.8,1.4-4.5,1.4-8.2c0-0.8-0.1-1.4-0.3-1.7c-0.3-0.4-0.8-0.8-1.5-1.1c0.7-0.3,1.2-0.5,1.4-0.8
		c0.3-0.5,0.5-1.1,0.5-1.8c0-0.7,0-1.4-0.1-2.1c-0.1-0.7-0.2-1.4-0.4-2.1c-0.2-0.7-0.5-1.4-0.8-2c-0.3-0.6-0.7-1.2-1.1-1.7
		c-0.9-1.1-2-1.6-3.3-1.6c-0.4,0-0.8,0-1.1,0c-0.4,0-0.6,0.1-0.8,0.4V228.8z M538.8,207.6c0.9,2.7,1.3,5,1.3,7c0,0.7,0,1.1-0.1,1.2
		c-0.1,0.1-0.2,0.2-0.3,0.3c-0.2,0.2-0.4,0.3-0.7,0.4c0.7,0.4,1.1,0.7,1.1,1c0,0.1,0,0.3,0,0.4v0.5c0,1.8-0.2,3.4-0.5,5.1
		c-0.3,1.6-0.6,2.8-0.7,3.3c0.5-0.2,0.9-0.6,1.1-1.2c0.2-0.6,0.4-1.3,0.6-1.9c0.2-0.7,0.3-1.4,0.4-2.2c0.2-1.6,0.3-3.3,0.3-5
		c0-3.1-0.4-5.6-1.2-7.5C539.8,208.1,539.4,207.7,538.8,207.6z"/>
</g>
<rect id="border" x="331.3" y="28.1" class="st2" width="233.4" height="233.4"/>
<g id="fist">
	<g>
		<path class="st3" d="M467.7,138.6c1.7,0.7,1.7,1.7,3.4,2c0.7,0.1,1.4,0.1,2.3,0c0.8-0.1,1.6-0.2,2.3-0.5c1.3-0.6,1.9-1.9,2.3-2.7
			c2.3-5.3,1.6-9.2,4.1-14c0.4-0.8,1.1-2.1,1.8-4.1c0.8-2.4,0.9-3.9,0.9-4.5c0-1.4-0.3-2.5-0.5-3.2c-1.1-4.2-2.9-8.2-3.6-9.9
			c-1.8-4.1-2.7-6.2-3.6-8.6c-1.5-3.8-2-5.2-3.6-6.8c-0.8-0.8-2.5-2.1-5-2.7c-3.2-0.7-5.9,0.3-8.6,1.4c-2.4,0.9-4.6,2.2-5.4,2.7
			c-2.4,1.4-3.6,2.4-5.9,2.7c-0.1,0-0.1,0-2.7,0c-4.6,0-4,0-5,0c-3.1-0.1-3.3-0.3-4.5,0c-0.8,0.2-0.5,0.2-3.2,1.4
			c-1.3,0.6-2.6,1.1-3.5,1.4c-0.7,0.3-1.2,0.7-1.7,1.2c-0.3,0.4-0.7,0.8-1.1,1c-0.7,0.3-1.1,0-2.3,0c-1.2,0-2.1,0.4-3.2,0.9
			c-0.3,0.2-2.2,1-3.6,2.7c-2.2,2.6-2.8,6.4-2.3,9.5c0.6,3.1,2.2,4.5,1.4,6.8c-0.3,0.8-0.7,0.9-1.4,2.3c-0.3,0.7-1,2-1.4,4.5
			c-0.7,4.4-1.2,7.4,0.5,9.9c1.1,1.7,2.5,2.3,4.1,5c0.3,0.5,0.7,1.2,0.9,2.3c0.3,1.5,0.1,2.6,0,3.2c-0.1,0.6-1,5.9,1.4,9
			c0.2,0.2,0,0,3.6,3.6c0.5,0.5,1,1,1.4,1.8c0.6,1.3,0.4,2.4,0.5,3.2c0,2.3,1.1,4,2.3,5.9c0.7,1.1,2.2,3.5,5,5
			c1.8,1,3.6,1.1,7.2,1.4c2.7,0.2,3.5,0,9,0c4.2,0,4.3,0.1,7.2,0c7.3-0.2,8.6-0.8,9.5-1.4c2.4-1.6,3.3-4.2,3.6-5
			c0.8-2.4,0.6-4.4,0.5-5.4c-0.3-2.3-1.2-4-1.8-5c0.7-0.8,1.6-2.2,2.3-4.1c1-3,1.1-5.8,0.5-6.8C469.3,141.5,467.7,139.9,467.7,138.6
			z"/>
		<path class="st3" d="M480.8,126.6c-1.5,0-1.4,0-2.9,0c-0.5-0.2-3.1-0.4-3.8,0c-0.5,0.3-0.8,0.7-1.4,3.2c-0.6,2.5-1.6,5.9-1.6,5.9
			c0.2,0.4,0.7,1,1.8,1.8c0.3,0.2,1.8,0.3,2.9,0.5c1.7,0.2,1.7-0.2,2-0.5"/>
		<path class="st4" d="M439.1,93.7c1.4,0,3.2,0,5.3,0.1c0.9,0.1,3.4,0.2,6.9,0.8c1.7,0.3,10.9,2.3,10.9,2.3s-0.5-2.3,1.8-3.2
			c0,0-0.5,2.3,0,3.2c0,0,1.8,1.4,2.7,5.1c0.9,3.7,3.2,11.1,0,17.1c0.8,1.3,1.8,3.4,2.1,6.2c0.1,0.8,0.1,1.4,0.1,2.1
			c0.1,5.6-1.4,10.7-1.4,10.7c0,0,0,0,0-0.1c0.2-0.9,1.2-7.1,0-11.7c-0.4-1.5-0.6-2.5-1.4-3.6c-1.1-1.8-2.2-2-2.3-3.2
			c-0.1-1.2,1-1.6,1.8-3.6c0.1-0.3,0.4-1.1,0.5-3.6c0.1-3.2,0.1-5.6-0.9-8.6c-0.5-1.5-1-2.9-2.3-4.1c-1.4-1.3-3-1.7-5.4-2.3
			c-6.3-1.3-9.9-1.7-14.4-2.7C441.5,94.4,440,94,439.1,93.7z"/>
		<path class="st4" d="M427.6,118.3c-1-0.1-2.6-0.1-4.5,0.5c-1.2,0.4-2.8,0.8-4.1,2.3c-1.5,1.7-1.8,3.7-1.8,4.5
			c-0.1-0.3-1.3-3.6,0.5-5.9c0.9-1.2,2.2-1.5,3.2-1.8C423.8,117,426.4,117.8,427.6,118.3z"/>
		<path class="st4" d="M430.8,139.5c0,0.2-1.5,0-3.6,0.9c-0.5,0.2-1.6,0.7-2.7,1.8c-1.9,1.9-2.1,4.1-2.3,4.1c-0.2,0-0.1-2.4,1.4-4.5
			c0.4-0.7,1.1-1.6,2.3-2.3C428.1,138.3,430.8,139.2,430.8,139.5z"/>
		<path class="st4" d="M438.9,156.4c2,0.3,4.7,0.6,7.9,0.7c4.9,0.2,4.7-0.3,11.3-0.5c5.2-0.1,6.4,0.2,8.1-0.9
			c2.6-1.7,3.4-4.5,3.6-5.4c0.1-0.6,1-4.6-1.4-7.2c-1.2-1.3-2.8-1.9-5-2.3c-8-1.4-12.3,1.7-20.7,1.4c-2.7-0.1-5-0.6-6.3-0.9
			c3.5,0.3,5.3,0.1,5.4-0.5c0.1-0.3-0.4-0.8-1.4-1.4c0.9,0.3,2.3,0.7,4.1,0.9c2.8,0.2,3.6-0.4,7.2-0.9c3.7-0.5,4.2,0,9.9-0.5
			c2.9-0.3,3.4,0,4.1-0.5c2.7-1.8,2.5-8.8,2.5-9.2c0-0.7-1.7-4.3-2-4.7c-1-1.7-2.4-2.7-3.2-3.2c-4.8,0.4-10.4,0.6-16.7,0
			c-4.3-0.4-8.2-1-11.7-1.8c4.7,0,9.3,0,14,0c4.8,0,9.6,0,14.4,0c1.2-0.9,1.6-1.7,1.8-2.3c0.4-1.1,0.3-2.3,0.1-4.6
			c0-0.4,0-0.4-0.1-0.8c-0.1-1.2-0.2-2.9,0-5c0.6,4.5,1.2,9,1.8,13.5c0.5,3.8,1.9,6.6,2,8.8c0.4,4.9-0.8,6.5,0.7,9.2
			c1.1,2.1,2.7,4.1,2.7,7.2c0.1,3.6-1.4,6.3-1.4,6.3c-0.9,1.7-1.7,2.2-1.8,3.6c-0.1,1.7,1.1,2.5,1.8,4.1c1.3,3.1-0.1,7.6-2.7,9.9
			c-2.5,2.3-5.8,2.1-11.3,1.8c-2.2-0.1-4.3-0.5-8.6-1.4c-2.6-0.5-7.3-1.4-7.2-1.8c0-0.4,3.5-0.4,6.8,0c2,0.3,2.1,0.5,4.5,0.9
			c3.7,0.7,6.4,1.1,9.5,0.5c1.8-0.4,3.8-0.9,5.4-2.7c1.7-2,2.5-5.2,1.4-7.7c-0.3-0.6-0.6-1-0.9-1.4c-5.9,1.1-13.7,1.8-22.5,0
			C442.8,157.5,440.8,157,438.9,156.4z"/>
	</g>
	<g>
		<path class="st5" d="M470,134.3c1.7,0.7,1.7,1.7,3.4,2c0.7,0.1,1.4,0.1,2.3,0c0.8-0.1,1.6-0.2,2.3-0.5c1.3-0.6,1.9-1.9,2.3-2.7
			c2.3-5.3,1.6-9.2,4.1-14c0.4-0.8,1.1-2.1,1.8-4.1c0.8-2.4,0.9-3.9,0.9-4.5c0-1.4-0.3-2.5-0.5-3.2c-1.1-4.2-2.9-8.2-3.6-9.9
			c-1.8-4.1-2.7-6.2-3.6-8.6c-1.5-3.8-2-5.2-3.6-6.8c-0.8-0.8-2.5-2.1-5-2.7c-3.2-0.7-5.9,0.3-8.6,1.4c-2.4,0.9-4.6,2.2-5.4,2.7
			c-2.4,1.4-3.6,2.4-5.9,2.7c-0.1,0-0.1,0-2.7,0c-4.6,0-4,0-5,0c-3.1-0.1-3.3-0.3-4.5,0c-0.8,0.2-0.5,0.2-3.2,1.4
			c-1.3,0.6-2.6,1.1-3.5,1.4c-0.7,0.3-1.2,0.7-1.7,1.2c-0.3,0.4-0.7,0.8-1.1,1c-0.7,0.3-1.1,0-2.3,0c-1.2,0-2.1,0.4-3.2,0.9
			c-0.3,0.2-2.2,1-3.6,2.7c-2.2,2.6-2.8,6.4-2.3,9.5c0.6,3.1,2.2,4.5,1.4,6.8c-0.3,0.8-0.7,0.9-1.4,2.3c-0.3,0.7-1,2-1.4,4.5
			c-0.7,4.4-1.2,7.4,0.5,9.9c1.1,1.7,2.5,2.3,4.1,5c0.3,0.5,0.7,1.2,0.9,2.3c0.3,1.5,0.1,2.6,0,3.2c-0.1,0.6-1,5.9,1.4,9
			c0.2,0.2,0,0,3.6,3.6c0.5,0.5,1,1,1.4,1.8c0.6,1.3,0.4,2.4,0.5,3.2c0,2.3,1.1,4,2.3,5.9c0.7,1.1,2.2,3.5,5,5
			c1.8,1,3.6,1.1,7.2,1.4c2.7,0.2,3.5,0,9,0c4.2,0,4.3,0.1,7.2,0c7.3-0.2,8.6-0.8,9.5-1.4c2.4-1.6,3.3-4.2,3.6-5
			c0.8-2.4,0.6-4.4,0.5-5.4c-0.3-2.3-1.2-4-1.8-5c0.7-0.8,1.6-2.2,2.3-4.1c1-3,1.1-5.8,0.5-6.8C471.6,137.2,470,135.7,470,134.3z"/>
		<path class="st5" d="M483.1,122.4c-1.5,0-1.4,0-2.9,0c-0.5-0.2-3.1-0.4-3.8,0c-0.5,0.3-0.8,0.7-1.4,3.2c-0.6,2.5-1.6,5.9-1.6,5.9
			c0.2,0.4,0.7,1,1.8,1.8c0.3,0.2,1.8,0.3,2.9,0.5c1.7,0.2,1.7-0.2,2-0.5"/>
		<path class="st6" d="M441.4,89.5c1.4,0,3.2,0,5.3,0.1c0.9,0.1,3.4,0.2,6.9,0.8c1.7,0.3,10.9,2.3,10.9,2.3s-0.5-2.3,1.8-3.2
			c0,0-0.5,2.3,0,3.2c0,0,1.8,1.4,2.7,5.1c0.9,3.7,3.2,11.1,0,17.1c0.8,1.3,1.8,3.4,2.1,6.2c0.1,0.8,0.1,1.4,0.1,2.1
			c0.1,5.6-1.4,10.7-1.4,10.7c0,0,0,0,0-0.1c0.2-0.9,1.2-7.1,0-11.7c-0.4-1.5-0.6-2.5-1.4-3.6c-1.1-1.8-2.2-2-2.3-3.2
			c-0.1-1.2,1-1.6,1.8-3.6c0.1-0.3,0.4-1.1,0.5-3.6c0.1-3.2,0.1-5.6-0.9-8.6c-0.5-1.5-1-2.9-2.3-4.1c-1.4-1.3-3-1.7-5.4-2.3
			c-6.3-1.3-9.9-1.7-14.4-2.7C443.8,90.2,442.3,89.7,441.4,89.5z"/>
		<path class="st6" d="M429.9,114c-1-0.1-2.6-0.1-4.5,0.5c-1.2,0.4-2.8,0.8-4.1,2.3c-1.5,1.7-1.8,3.7-1.8,4.5
			c-0.1-0.3-1.3-3.6,0.5-5.9c0.9-1.2,2.2-1.5,3.2-1.8C426,112.7,428.6,113.5,429.9,114z"/>
		<path class="st6" d="M433.1,135.2c0,0.2-1.5,0-3.6,0.9c-0.5,0.2-1.6,0.7-2.7,1.8c-1.9,1.9-2.1,4.1-2.3,4.1c-0.2,0-0.1-2.4,1.4-4.5
			c0.4-0.7,1.1-1.6,2.3-2.3C430.4,134,433.1,134.9,433.1,135.2z"/>
		<path class="st6" d="M441.2,152.1c2,0.3,4.7,0.6,7.9,0.7c4.9,0.2,4.7-0.3,11.3-0.5c5.2-0.1,6.4,0.2,8.1-0.9
			c2.6-1.7,3.4-4.5,3.6-5.4c0.1-0.6,1-4.6-1.4-7.2c-1.2-1.3-2.8-1.9-5-2.3c-8-1.4-12.3,1.7-20.7,1.4c-2.7-0.1-5-0.6-6.3-0.9
			c3.5,0.3,5.3,0.1,5.4-0.5c0.1-0.3-0.4-0.8-1.4-1.4c0.9,0.3,2.3,0.7,4.1,0.9c2.8,0.2,3.6-0.4,7.2-0.9c3.7-0.5,4.2,0,9.9-0.5
			c2.9-0.3,3.4,0,4.1-0.5c2.7-1.8,2.5-8.8,2.5-9.2c0-0.7-1.7-4.3-2-4.7c-1-1.7-2.4-2.7-3.2-3.2c-4.8,0.4-10.4,0.6-16.7,0
			c-4.3-0.4-8.2-1-11.7-1.8c4.7,0,9.3,0,14,0c4.8,0,9.6,0,14.4,0c1.2-0.9,1.6-1.7,1.8-2.3c0.4-1.1,0.3-2.3,0.1-4.6
			c0-0.4,0-0.4-0.1-0.8c-0.1-1.2-0.2-2.9,0-5c0.6,4.5,1.2,9,1.8,13.5c0.5,3.8,1.9,6.6,2,8.8c0.4,4.9-0.8,6.5,0.7,9.2
			c1.1,2.1,2.7,4.1,2.7,7.2c0.1,3.6-1.4,6.3-1.4,6.3c-0.9,1.7-1.7,2.2-1.8,3.6c-0.1,1.7,1.1,2.5,1.8,4.1c1.3,3.1-0.1,7.6-2.7,9.9
			c-2.5,2.3-5.8,2.1-11.3,1.8c-2.2-0.1-4.3-0.5-8.6-1.4c-2.6-0.5-7.3-1.4-7.2-1.8c0-0.4,3.5-0.4,6.8,0c2,0.3,2.1,0.5,4.5,0.9
			c3.7,0.7,6.4,1.1,9.5,0.5c1.8-0.4,3.8-0.9,5.4-2.7c1.7-2,2.5-5.2,1.4-7.7c-0.3-0.6-0.6-1-0.9-1.4c-5.9,1.1-13.7,1.8-22.5,0
			C445.1,153.2,443,152.7,441.2,152.1z"/>
	</g>
	<g>
		<path class="st7" d="M467.7,136.2c1.7,0.7,1.7,1.7,3.4,2c0.7,0.1,1.4,0.1,2.3,0c0.8-0.1,1.6-0.2,2.3-0.5c1.3-0.6,1.9-1.9,2.3-2.7
			c2.3-5.3,1.6-9.2,4.1-14c0.4-0.8,1.1-2.1,1.8-4.1c0.8-2.4,0.9-3.9,0.9-4.5c0-1.4-0.3-2.5-0.5-3.2c-1.1-4.2-2.9-8.2-3.6-9.9
			c-1.8-4.1-2.7-6.2-3.6-8.6c-1.5-3.8-2-5.2-3.6-6.8c-0.8-0.8-2.5-2.1-5-2.7c-3.2-0.7-5.9,0.3-8.6,1.4c-2.4,0.9-4.6,2.2-5.4,2.7
			c-2.4,1.4-3.6,2.4-5.9,2.7c-0.1,0-0.1,0-2.7,0c-4.6,0-4,0-5,0c-3.1-0.1-3.3-0.3-4.5,0c-0.8,0.2-0.5,0.2-3.2,1.4
			c-1.3,0.6-2.6,1.1-3.5,1.4c-0.7,0.3-1.2,0.7-1.7,1.2c-0.3,0.4-0.7,0.8-1.1,1c-0.7,0.3-1.1,0-2.3,0c-1.2,0-2.1,0.4-3.2,0.9
			c-0.3,0.2-2.2,1-3.6,2.7c-2.2,2.6-2.8,6.4-2.3,9.5c0.6,3.1,2.2,4.5,1.4,6.8c-0.3,0.8-0.7,0.9-1.4,2.3c-0.3,0.7-1,2-1.4,4.5
			c-0.7,4.4-1.2,7.4,0.5,9.9c1.1,1.7,2.5,2.3,4.1,5c0.3,0.5,0.7,1.2,0.9,2.3c0.3,1.5,0.1,2.6,0,3.2c-0.1,0.6-1,5.9,1.4,9
			c0.2,0.2,0,0,3.6,3.6c0.5,0.5,1,1,1.4,1.8c0.6,1.3,0.4,2.4,0.5,3.2c0,2.3,1.1,4,2.3,5.9c0.7,1.1,2.2,3.5,5,5
			c1.8,1,3.6,1.1,7.2,1.4c2.7,0.2,3.5,0,9,0c4.2,0,4.3,0.1,7.2,0c7.3-0.2,8.6-0.8,9.5-1.4c2.4-1.6,3.3-4.2,3.6-5
			c0.8-2.4,0.6-4.4,0.5-5.4c-0.3-2.3-1.2-4-1.8-5c0.7-0.8,1.6-2.2,2.3-4.1c1-3,1.1-5.8,0.5-6.8C469.3,139.2,467.7,137.6,467.7,136.2
			z"/>
		<path class="st7" d="M480.8,124.3c-1.5,0-1.4,0-2.9,0c-0.5-0.2-3.1-0.4-3.8,0c-0.5,0.3-0.8,0.7-1.4,3.2c-0.6,2.5-1.6,5.9-1.6,5.9
			c0.2,0.4,0.7,1,1.8,1.8c0.3,0.2,1.8,0.3,2.9,0.5c1.7,0.2,1.7-0.2,2-0.5"/>
		<path class="st8" d="M439.1,91.4c1.4,0,3.2,0,5.3,0.1c0.9,0.1,3.4,0.2,6.9,0.8c1.7,0.3,10.9,2.3,10.9,2.3s-0.5-2.3,1.8-3.2
			c0,0-0.5,2.3,0,3.2c0,0,1.8,1.4,2.7,5.1c0.9,3.7,3.2,11.1,0,17.1c0.8,1.3,1.8,3.4,2.1,6.2c0.1,0.8,0.1,1.4,0.1,2.1
			c0.1,5.6-1.4,10.7-1.4,10.7c0,0,0,0,0-0.1c0.2-0.9,1.2-7.1,0-11.7c-0.4-1.5-0.6-2.5-1.4-3.6c-1.1-1.8-2.2-2-2.3-3.2
			c-0.1-1.2,1-1.6,1.8-3.6c0.1-0.3,0.4-1.1,0.5-3.6c0.1-3.2,0.1-5.6-0.9-8.6c-0.5-1.5-1-2.9-2.3-4.1c-1.4-1.3-3-1.7-5.4-2.3
			c-6.3-1.3-9.9-1.7-14.4-2.7C441.5,92.1,440,91.7,439.1,91.4z"/>
		<path class="st8" d="M427.6,115.9c-1-0.1-2.6-0.1-4.5,0.5c-1.2,0.4-2.8,0.8-4.1,2.3c-1.5,1.7-1.8,3.7-1.8,4.5
			c-0.1-0.3-1.3-3.6,0.5-5.9c0.9-1.2,2.2-1.5,3.2-1.8C423.8,114.7,426.4,115.4,427.6,115.9z"/>
		<path class="st8" d="M430.8,137.1c0,0.2-1.5,0-3.6,0.9c-0.5,0.2-1.6,0.7-2.7,1.8c-1.9,1.9-2.1,4.1-2.3,4.1c-0.2,0-0.1-2.4,1.4-4.5
			c0.4-0.7,1.1-1.6,2.3-2.3C428.1,135.9,430.8,136.8,430.8,137.1z"/>
		<path class="st8" d="M438.9,154c2,0.3,4.7,0.6,7.9,0.7c4.9,0.2,4.7-0.3,11.3-0.5c5.2-0.1,6.4,0.2,8.1-0.9c2.6-1.7,3.4-4.5,3.6-5.4
			c0.1-0.6,1-4.6-1.4-7.2c-1.2-1.3-2.8-1.9-5-2.3c-8-1.4-12.3,1.7-20.7,1.4c-2.7-0.1-5-0.6-6.3-0.9c3.5,0.3,5.3,0.1,5.4-0.5
			c0.1-0.3-0.4-0.8-1.4-1.4c0.9,0.3,2.3,0.7,4.1,0.9c2.8,0.2,3.6-0.4,7.2-0.9c3.7-0.5,4.2,0,9.9-0.5c2.9-0.3,3.4,0,4.1-0.5
			c2.7-1.8,2.5-8.8,2.5-9.2c0-0.7-1.7-4.3-2-4.7c-1-1.7-2.4-2.7-3.2-3.2c-4.8,0.4-10.4,0.6-16.7,0c-4.3-0.4-8.2-1-11.7-1.8
			c4.7,0,9.3,0,14,0c4.8,0,9.6,0,14.4,0c1.2-0.9,1.6-1.7,1.8-2.3c0.4-1.1,0.3-2.3,0.1-4.6c0-0.4,0-0.4-0.1-0.8c-0.1-1.2-0.2-2.9,0-5
			c0.6,4.5,1.2,9,1.8,13.5c0.5,3.8,1.9,6.6,2,8.8c0.4,4.9-0.8,6.5,0.7,9.2c1.1,2.1,2.7,4.1,2.7,7.2c0.1,3.6-1.4,6.3-1.4,6.3
			c-0.9,1.7-1.7,2.2-1.8,3.6c-0.1,1.7,1.1,2.5,1.8,4.1c1.3,3.1-0.1,7.6-2.7,9.9c-2.5,2.3-5.8,2.1-11.3,1.8c-2.2-0.1-4.3-0.5-8.6-1.4
			c-2.6-0.5-7.3-1.4-7.2-1.8c0-0.4,3.5-0.4,6.8,0c2,0.3,2.1,0.5,4.5,0.9c3.7,0.7,6.4,1.1,9.5,0.5c1.8-0.4,3.8-0.9,5.4-2.7
			c1.7-2,2.5-5.2,1.4-7.7c-0.3-0.6-0.6-1-0.9-1.4c-5.9,1.1-13.7,1.8-22.5,0C442.8,155.2,440.8,154.6,438.9,154z"/>
	</g>
</g>
</svg>
