<?xml version="1.0" encoding="utf-8"?>
<!-- Generator: Adobe Illustrator 22.1.0, SVG Export Plug-In . SVG Version: 6.00 Build 0)  -->
<svg version="1.1" id="Layer_1" xmlns="http://www.w3.org/2000/svg" xmlns:xlink="http://www.w3.org/1999/xlink" x="0px" y="0px"
	 viewBox="0 0 311.5 299.7" style="enable-background:new 0 0 311.5 299.7;" xml:space="preserve">
<style type="text/css">
	.st0{fill:#060709;}
	.st1{fill:#FDFEFF;}
	.st2{fill:none;stroke:#FFFFFF;stroke-miterlimit:10;}
	.st3{fill:none;stroke:#4263AE;stroke-width:2;stroke-miterlimit:10;}
	.st4{fill:#4263AE;}
	.st5{fill:none;stroke:#FCEE1F;stroke-linecap:round;stroke-miterlimit:10;}
	.st6{fill:#FCEE1F;}
	.st7{fill:none;stroke:#EB2227;stroke-width:2;stroke-miterlimit:10;}
	.st8{fill:#EB2227;}
</style>
<rect id="bckgrnd" class="st0" width="311.5" height="299.7"/>
<g>
	<path class="st1" d="M77.5,241.8c-0.6,0.4-1.3,0.6-2,0.6s-1.4-0.2-2-0.6c-0.6,0.4-1.1,0.6-1.6,0.6s-0.9,0-1.2-0.1
		c-0.3-0.1-0.6-0.2-0.8-0.4c-0.5-0.3-0.7-0.8-0.7-1.3c0-0.3,0.1-0.5,0.2-0.7c0.3,0.2,0.6,0.3,1,0.3c1,0,1.7-0.5,2.1-1.5v-9.5
		c0-0.6-0.1-1-0.3-1.3c-0.3-0.5-0.9-1-1.8-1.4c0.8-0.4,1.3-0.8,1.5-1.1c0.4-0.5,0.6-1.1,0.6-1.7v-8.2c-0.4-1-1.1-1.5-2.1-1.5
		c-0.4,0-0.7,0.1-1,0.3c-0.1-0.2-0.2-0.4-0.2-0.7s0.1-0.5,0.2-0.7c0.1-0.2,0.3-0.4,0.5-0.6c0.5-0.4,1.1-0.5,1.8-0.5s1.3,0.2,1.9,0.6
		c0.6-0.4,1.3-0.6,2-0.6c0.7,0,1.4,0.2,2,0.6c1.1-0.5,2.4-0.8,3.9-0.8c1.4,0,2.7,0.2,3.7,0.6c1,0.4,2,0.9,2.8,1.6
		c1.8,1.4,2.9,3.2,3.5,5.5c0.2,0.9,0.8,1.6,1.6,2.2c-0.9,0.6-1.5,1.4-1.8,2.5c-0.3,1.1-0.8,2.2-1.5,3.1c-0.7,1-1.5,1.8-2.4,2.4
		c-1.8,1.3-3.8,2-5.8,2c-0.9,0-1.8-0.1-2.8-0.4v7.4c0.3,0.8,1,1.2,1.9,1.5c0.3,0.1,0.5,0.1,0.8,0.1c0.3,0,0.6-0.1,0.8-0.3
		c0.1,0.2,0.2,0.4,0.2,0.7c0,0.3-0.1,0.5-0.3,0.7c-0.2,0.2-0.4,0.4-0.7,0.6c-0.6,0.4-1.3,0.5-2,0.5
		C78.8,242.4,78.2,242.2,77.5,241.8z M74,236.9c0.6-0.2,0.9-1.1,1-2.5c0.1-1.5,0.1-3.5,0.1-6c0-2.6,0-4.3,0-5.1c0-0.8,0-1.5,0-2.1
		c0-1.5-0.2-2.5-0.4-2.8c-0.2-0.3-0.4-0.5-0.6-0.6c0,4.5-0.1,7.1-0.2,7.7c-0.2,0.5-0.6,0.9-1.2,1.1c0.7,0.3,1.1,0.6,1.2,1
		c0.1,0.6,0.2,2.9,0.2,6.8V236.9z M78.7,226.2c0,0.9,0.3,1.6,0.9,2.1c0.5,0.5,1.2,0.7,2,0.7c1.3,0,2.2-0.5,2.7-1.6
		c0.2-0.4,0.3-0.8,0.3-1.4v-8.8c0-0.9-0.3-1.7-1-2.2c-0.6-0.5-1.1-0.7-1.7-0.7c-0.6,0-1,0.1-1.4,0.2c-0.4,0.1-0.7,0.3-1,0.6
		c-0.6,0.5-0.9,1.3-0.9,2.3V226.2z M85.8,228.2c0.3-0.1,0.5-0.4,0.8-1.1c0.3-0.7,0.5-1.5,0.6-2.4c0.1-0.9,0.3-1.6,0.5-2
		c0.2-0.4,0.6-0.7,1.1-0.9c-0.8-0.3-1.3-1.1-1.5-2.4s-0.5-2.2-0.7-2.8c-0.3-0.6-0.6-0.9-0.8-1c0.4,1.1,0.6,3.2,0.6,6.2
		c0,2-0.1,3.6-0.3,4.6C85.9,227.4,85.8,228,85.8,228.2z"/>
	<path class="st1" d="M115.2,235.7c0.2,0.6,0.6,1.1,1.3,1.6c-0.4,0.2-0.9,0.6-1.5,1.3c-0.6,0.7-1.3,1.3-2,1.8s-1.5,1-2.2,1.3
		c-1.3,0.6-2.8,0.9-4.3,0.9c-1.6,0-3-0.2-4.2-0.6c-1.3-0.4-2.3-1-3.1-1.7c-1.6-1.4-2.4-3.3-2.4-5.6v-5.4c0-0.6-0.1-1-0.3-1.3
		c-0.3-0.5-0.9-1-1.8-1.4c0.8-0.4,1.3-0.8,1.5-1.1c0.4-0.5,0.6-1.1,0.6-1.7v-8.2c-0.4-1-1.1-1.5-2.1-1.5c-0.4,0-0.7,0.1-1,0.3
		c-0.1-0.2-0.2-0.4-0.2-0.7s0.1-0.5,0.2-0.7c0.1-0.2,0.3-0.4,0.5-0.6c0.5-0.4,1.1-0.5,1.8-0.5s1.3,0.2,1.9,0.6
		c0.6-0.4,1.3-0.6,2-0.6s1.4,0.2,2,0.6c0.6-0.4,1.1-0.6,1.6-0.6c0.5,0,0.9,0,1.2,0.1c0.3,0.1,0.6,0.2,0.8,0.4
		c0.5,0.3,0.7,0.8,0.7,1.3c0,0.3-0.1,0.5-0.2,0.7c-0.3-0.2-0.6-0.3-1-0.3c-1,0-1.7,0.5-2.1,1.5v8.2c0,0.6,0.1,1.1,0.4,1.4
		c0.4,0.5,1,1,1.7,1.4c-0.8,0.5-1.4,0.8-1.6,1.1c-0.3,0.5-0.5,1-0.5,1.6v5.4c0,1.6,0.5,2.9,1.6,3.9c1,0.9,2.1,1.4,3.3,1.4
		c1.3,0,2.4-0.4,3.4-1.3c1-0.9,1.5-2,1.5-3.3v-6.2c0-0.6-0.1-1-0.3-1.3c-0.3-0.4-0.9-0.8-1.8-1.3c0.8-0.4,1.3-0.8,1.5-1.1
		c0.4-0.5,0.6-1,0.6-1.5v-8.7c-0.5-0.8-1.1-1.2-1.8-1.2s-1.2,0.1-1.6,0.3c-0.1-0.2-0.2-0.6-0.2-1s0.2-0.8,0.5-1.1
		c0.4-0.3,0.8-0.5,1.4-0.5s1.1,0.2,1.5,0.5c0.4-0.3,0.9-0.5,1.4-0.5s1,0.2,1.4,0.5c0.4-0.3,0.9-0.5,1.5-0.5c0.5,0,1,0.2,1.3,0.5
		c0.3,0.3,0.5,0.7,0.5,1.1s-0.1,0.7-0.2,0.9c-0.3-0.2-0.9-0.3-1.6-0.3c-0.7,0-1.3,0.4-1.8,1.2v8.7c0,0.6,0.1,1,0.3,1.2
		c0.3,0.4,1,0.8,2,1.3c-1,0.6-1.6,0.9-1.8,1.2c-0.3,0.3-0.5,0.8-0.5,1.4V235.7z M99.2,236.9c0.1-0.7,0.2-2.9,0.2-6.7s0-6.1,0-7
		s0-1.5,0-2.1c0-1.5-0.2-2.5-0.4-2.8c-0.2-0.3-0.4-0.5-0.6-0.6c0,4.5-0.1,7.1-0.2,7.7c-0.2,0.5-0.6,0.9-1.2,1.1
		c0.7,0.3,1.1,0.6,1.2,1c0.1,0.6,0.2,2,0.2,4s0,3.3,0.1,3.7c0.1,0.4,0.1,0.7,0.2,0.9C98.7,236.5,98.9,236.8,99.2,236.9z"/>
	<path class="st1" d="M128.9,241.8c-0.6,0.4-1.3,0.6-2,0.6c-0.7,0-1.4-0.2-2-0.6c-0.6,0.4-1.1,0.6-1.6,0.6s-0.9,0-1.2-0.1
		c-0.3-0.1-0.6-0.2-0.8-0.4c-0.5-0.3-0.7-0.8-0.7-1.3c0-0.3,0.1-0.5,0.2-0.7c0.3,0.2,0.6,0.3,1,0.3c1,0,1.7-0.5,2.1-1.5v-9.5
		c0-0.6-0.1-1-0.3-1.3c-0.3-0.5-0.9-1-1.8-1.4c0.8-0.4,1.3-0.8,1.5-1.1c0.4-0.5,0.6-1.1,0.6-1.7v-8.2c-0.4-1-1.1-1.5-2.1-1.5
		c-0.4,0-0.7,0.1-1,0.3c-0.1-0.2-0.2-0.4-0.2-0.7s0.1-0.5,0.2-0.7c0.1-0.2,0.3-0.4,0.5-0.6c0.5-0.4,1.1-0.5,1.8-0.5s1.3,0.2,1.9,0.6
		c0.6-0.4,1.3-0.6,2-0.6c0.7,0,1.4,0.2,2,0.6c1.3-0.6,2.7-0.8,4.3-0.8c1.6,0,2.9,0.2,4,0.5s2,0.8,2.8,1.4c1.6,1.2,2.5,2.9,2.9,5
		c0.1,1,0.7,1.7,1.6,2.2c-0.9,0.6-1.5,1.5-1.8,2.7c-0.6,2.6-2,4.2-4.2,4.8c1.2,0.3,2.1,1.1,2.9,2.2c0.8,1.1,1.1,2.5,1.1,4v1.9
		c0,1.9,0.5,3.1,1.6,3.6c0.3,0.2,0.7,0.3,1.1,0.3c0.4,0,0.7-0.1,1-0.3c0.1,0.2,0.2,0.4,0.2,0.7c0,0.3-0.1,0.5-0.2,0.7
		c-0.1,0.2-0.3,0.4-0.5,0.6c-0.4,0.4-0.9,0.5-1.5,0.5c-0.6,0-1.1-0.2-1.6-0.5c-1,0.6-1.9,0.7-2.7,0.2c-0.3,0.2-0.7,0.3-1,0.3
		c-0.4,0-0.7-0.1-1-0.3c-0.3-0.2-0.6-0.5-0.9-0.9c-0.5-0.9-0.8-2.3-0.8-4.1v-1.4c0-3-0.8-4.9-2.3-5.8c-0.5-0.3-1.1-0.4-1.8-0.4h-2
		v9.5c0.3,0.9,0.9,1.4,1.8,1.4c0.4,0,0.7-0.1,1-0.3c0.1,0.2,0.2,0.5,0.2,0.9c0,0.4-0.2,0.7-0.5,1.1s-0.9,0.5-1.6,0.5
		C130.1,242.4,129.5,242.2,128.9,241.8z M125.4,236.9c0.6-0.2,0.9-1.1,1-2.5c0.1-1.5,0.1-3.5,0.1-6c0-2.6,0-4.3,0-5.1
		c0-0.8,0-1.5,0-2.1c0-1.5-0.2-2.5-0.4-2.8c-0.2-0.3-0.4-0.5-0.6-0.6c0,4.5-0.1,7.1-0.2,7.7c-0.2,0.5-0.6,0.9-1.2,1.1
		c0.7,0.3,1.1,0.6,1.2,1c0.1,0.6,0.2,2.9,0.2,6.8V236.9z M133.4,214.3c-2.2,0-3.3,1-3.3,2.9v8c0,0.7,0.2,1.1,0.7,1.4
		c0.4,0.2,1.1,0.3,2,0.3c0.9,0,1.5-0.1,1.9-0.2c0.4-0.1,0.7-0.3,0.9-0.6c0.5-0.6,0.8-1.5,0.8-2.8v-5.7c0-1.6-0.6-2.7-1.8-3.1
		C134.2,214.4,133.8,214.3,133.4,214.3z M137.3,231.6c0.5,0.6,0.7,1.3,0.7,2.1v2.6c0,2.2,0.4,3.3,1.1,3.4c0.2,0,0.4,0,0.6,0
		c-0.4-0.7-0.6-1.5-0.6-2.3v-2.7c0-1-0.1-1.8-0.4-2.2C138.3,231.8,137.8,231.5,137.3,231.6z M137.5,215.5c0.4,0.9,0.5,2.4,0.5,4.4
		c0,3.4-0.1,5.5-0.4,6.2c0.6-0.1,1.1-1.1,1.4-2.9l0.1-0.8c0.1-0.8,0.5-1.4,1.1-1.6c-0.4-0.2-0.7-0.4-0.9-0.6
		c-0.1-0.3-0.3-0.7-0.4-1.4c-0.1-0.7-0.2-1.2-0.3-1.6c-0.1-0.4-0.2-0.7-0.4-1C138,215.8,137.8,215.6,137.5,215.5z"/>
	<path class="st1" d="M155.8,241.8c-0.6,0.4-1.3,0.6-2,0.6c-0.7,0-1.4-0.2-2-0.6c-0.6,0.4-1.1,0.6-1.6,0.6s-0.9,0-1.2-0.1
		c-0.3-0.1-0.6-0.2-0.8-0.4c-0.5-0.3-0.7-0.8-0.7-1.3c0-0.3,0.1-0.5,0.2-0.7c0.3,0.2,0.6,0.3,1,0.3c1,0,1.7-0.5,2.1-1.5v-9.5
		c0-0.6-0.1-1-0.3-1.3c-0.3-0.5-0.9-1-1.8-1.4c0.8-0.4,1.3-0.8,1.5-1.1c0.4-0.5,0.6-1.1,0.6-1.7v-8.2c-0.4-1-1.1-1.5-2.1-1.5
		c-0.4,0-0.7,0.1-1,0.3c-0.1-0.2-0.2-0.4-0.2-0.7s0.1-0.5,0.2-0.7c0.1-0.2,0.3-0.4,0.5-0.6c0.5-0.4,1.1-0.5,1.8-0.5s1.3,0.2,1.9,0.6
		c0.6-0.4,1.3-0.6,2-0.6c0.7,0,1.4,0.2,2,0.6c0.6-0.4,1.1-0.6,1.6-0.6c0.5,0,0.9,0,1.2,0.1c0.3,0.1,0.6,0.2,0.8,0.4
		c0.5,0.3,0.7,0.8,0.7,1.3c0,0.3-0.1,0.5-0.2,0.7c-0.3-0.2-0.6-0.3-1-0.3c-1,0-1.7,0.5-2.1,1.5v8.2c0,0.6,0.1,1.1,0.4,1.4
		c0.4,0.5,1,1,1.7,1.4c-0.8,0.5-1.4,0.8-1.6,1.1c-0.3,0.5-0.5,1-0.5,1.6v9.5c0.4,1,1.1,1.5,2.1,1.5c0.4,0,0.7-0.1,1-0.3
		c0.1,0.2,0.2,0.4,0.2,0.7c0,0.3-0.1,0.5-0.2,0.7c-0.1,0.2-0.3,0.4-0.5,0.6c-0.5,0.4-1.1,0.5-1.8,0.5
		C157,242.4,156.3,242.2,155.8,241.8z M152.2,236.9c0.6-0.2,0.9-1.1,1-2.5c0.1-1.5,0.1-3.5,0.1-6c0-2.6,0-4.3,0-5.1
		c0-0.8,0-1.5,0-2.1c0-1.5-0.2-2.5-0.4-2.8c-0.2-0.3-0.4-0.5-0.6-0.6c0,4.5-0.1,7.1-0.2,7.7c-0.2,0.5-0.6,0.9-1.2,1.1
		c0.7,0.3,1.1,0.6,1.2,1c0.1,0.6,0.2,2.9,0.2,6.8V236.9z"/>
	<path class="st1" d="M171.5,241.8c-0.6,0.4-1.3,0.6-2.1,0.6c-0.8,0-1.5-0.2-2-0.6c-0.6,0.4-1.1,0.6-1.6,0.6s-0.9,0-1.2-0.1
		c-0.3-0.1-0.6-0.2-0.8-0.4c-0.5-0.3-0.8-0.8-0.8-1.3c0-0.3,0.1-0.5,0.2-0.7c0.3,0.2,0.6,0.3,1,0.3c1,0,1.7-0.5,2.1-1.5v-9.5
		c0-0.6-0.1-1-0.3-1.3c-0.4-0.5-1-1-1.8-1.4c0.8-0.4,1.3-0.8,1.5-1.1c0.4-0.5,0.6-1.1,0.6-1.7v-8.2c-0.4-1-1.1-1.5-2.1-1.5
		c-0.5,0-0.8,0.1-1.1,0.3c-0.1-0.2-0.2-0.4-0.2-0.7s0.1-0.5,0.2-0.7s0.3-0.4,0.6-0.6c0.5-0.4,1.2-0.5,1.9-0.5s1.3,0.2,1.9,0.6
		c0.6-0.4,1.3-0.6,2.1-0.6s1.5,0.3,2.1,0.8c1.3-0.5,2.8-0.8,4.6-0.8c1.1,0,2.1,0.1,2.9,0.4l1.5,0.5c0.2,0.1,0.4,0.1,0.5,0.1
		c0.3,0,0.5-0.3,0.5-0.8c0-0.1,0-0.4-0.1-0.7c0.3-0.1,0.7-0.1,1.2-0.1c0.5,0,0.9,0.2,1.3,0.6c0.3,0.4,0.5,0.9,0.5,1.6
		c0,0.7-0.1,1.3-0.4,1.7c0.3,0.6,0.5,1.3,0.5,2.1c0,0.8-0.2,1.5-0.7,2.1c0.2,0.4,0.2,0.8,0.2,1.3s-0.1,0.8-0.2,1.1
		c-0.1,0.3-0.2,0.6-0.4,0.8c-0.3,0.4-0.7,0.7-1.2,0.7c-0.4,0-0.8-0.1-1.2-0.3c0.2-0.4,0.2-0.8,0.2-1.3c0-0.5,0-0.9-0.1-1.2
		c0-0.3-0.1-0.7-0.2-1c-0.2-0.8-0.4-1.6-0.8-2.4c-0.8-1.6-2-2.4-3.6-2.4c-2,0-3.4,0.6-4.2,1.8v9c0.4,0.2,0.7,0.3,1,0.3
		c0.3,0,0.6,0,0.8,0c0.2,0,0.4,0,0.6-0.1c0.5-0.1,0.9-0.2,1.1-0.3c0.5-0.3,0.7-0.8,0.7-1.8c0-0.9-0.1-1.6-0.4-2.1
		c0.2-0.2,0.5-0.3,0.9-0.3c0.8,0,1.3,0.4,1.7,1.3c0.1,0.3,0.2,0.7,0.2,1s-0.1,0.8-0.2,1.2c0.5,0.6,0.7,1.3,0.7,2.2s-0.2,1.6-0.7,2.2
		c0.1,0.4,0.2,0.8,0.2,1.2c0,0.4-0.1,0.7-0.2,1s-0.3,0.6-0.5,0.8c-0.4,0.4-0.8,0.5-1.2,0.5c-0.3,0-0.6-0.1-0.9-0.3
		c0.2-0.5,0.4-1,0.4-1.6c0-1.2-0.3-2-0.9-2.2c-0.5-0.2-1.1-0.3-1.8-0.3c-0.7,0-1.2,0.1-1.6,0.4v10.3c0.4,1,1.3,1.5,2.5,1.5
		c0.4,0,0.7-0.1,1-0.3c0.1,0.2,0.2,0.4,0.2,0.7c0,0.3-0.1,0.5-0.2,0.7c-0.1,0.2-0.3,0.4-0.6,0.6c-0.5,0.4-1.1,0.5-1.9,0.5
		S172.2,242.2,171.5,241.8z M167.9,236.9c0.6-0.2,0.9-1.1,1-2.5c0.1-1.5,0.1-3.5,0.1-6c0-2.6,0-4.3,0-5.1s0-1.5,0-2.1
		c0-1.5-0.2-2.5-0.4-2.8c-0.2-0.3-0.4-0.5-0.6-0.6c0,4.5-0.1,7.1-0.2,7.7c-0.2,0.5-0.6,0.9-1.2,1.1c0.7,0.3,1.1,0.6,1.2,1
		c0.1,0.6,0.2,2.9,0.2,6.8V236.9z"/>
	<path class="st1" d="M194.6,241.8c-0.6,0.4-1.3,0.6-2,0.6c-0.8,0-1.4-0.2-2-0.6c-0.6,0.4-1.1,0.6-1.6,0.6c-0.5,0-0.9,0-1.2-0.1
		c-0.3-0.1-0.6-0.2-0.8-0.4c-0.5-0.3-0.7-0.8-0.7-1.3c0-0.3,0.1-0.5,0.2-0.7c0.3,0.2,0.6,0.3,1,0.3c1,0,1.7-0.5,2.1-1.5v-9.5
		c0-0.6-0.1-1-0.3-1.3c-0.3-0.5-0.9-1-1.8-1.4c0.8-0.4,1.3-0.8,1.5-1.1c0.4-0.5,0.6-1.1,0.6-1.7v-8.2c-0.4-1-1.1-1.5-2.1-1.5
		c-0.4,0-0.7,0.1-1,0.3c-0.1-0.2-0.2-0.4-0.2-0.7s0.1-0.5,0.2-0.7c0.1-0.2,0.3-0.4,0.5-0.6c0.5-0.4,1.1-0.5,1.8-0.5
		c0.7,0,1.3,0.2,1.9,0.6c0.6-0.4,1.3-0.6,2-0.6c0.7,0,1.4,0.2,2,0.6c0.6-0.4,1.1-0.6,1.6-0.6c0.5,0,0.9,0,1.2,0.1
		c0.3,0.1,0.6,0.2,0.8,0.4c0.5,0.3,0.7,0.8,0.7,1.3c0,0.3-0.1,0.5-0.2,0.7c-0.3-0.2-0.6-0.3-1-0.3c-1,0-1.7,0.5-2.1,1.5v8.2
		c0,0.6,0.1,1.1,0.4,1.4c0.4,0.5,1,1,1.7,1.4c-0.8,0.5-1.4,0.8-1.6,1.1c-0.3,0.5-0.5,1-0.5,1.6v9.5c0.4,1,1.1,1.5,2.1,1.5
		c0.4,0,0.7-0.1,1-0.3c0.1,0.2,0.2,0.4,0.2,0.7c0,0.3-0.1,0.5-0.2,0.7c-0.1,0.2-0.3,0.4-0.5,0.6c-0.5,0.4-1.1,0.5-1.8,0.5
		C195.9,242.4,195.2,242.2,194.6,241.8z M191.1,236.9c0.6-0.2,0.9-1.1,1-2.5c0.1-1.5,0.1-3.5,0.1-6c0-2.6,0-4.3,0-5.1s0-1.5,0-2.1
		c0-1.5-0.2-2.5-0.4-2.8s-0.4-0.5-0.6-0.6c0,4.5-0.1,7.1-0.2,7.7c-0.2,0.5-0.6,0.9-1.2,1.1c0.7,0.3,1.1,0.6,1.2,1
		c0.1,0.6,0.2,2.9,0.2,6.8V236.9z"/>
	<path class="st1" d="M208.2,242.4c-0.8,0-1.4-0.2-2-0.6c-0.6,0.4-1.1,0.6-1.6,0.6c-0.5,0-0.9,0-1.2-0.1c-0.3-0.1-0.6-0.2-0.8-0.4
		c-0.5-0.3-0.7-0.8-0.7-1.3c0-0.3,0.1-0.5,0.2-0.7c0.3,0.2,0.6,0.3,1,0.3c1,0,1.7-0.5,2.1-1.5v-9.5c0-0.6-0.1-1-0.3-1.3
		c-0.3-0.5-0.9-1-1.8-1.4c0.8-0.4,1.3-0.8,1.5-1.1c0.4-0.5,0.6-1.1,0.6-1.7v-8.2c-0.4-1-1.1-1.5-2.1-1.5c-0.4,0-0.7,0.1-1,0.3
		c-0.1-0.2-0.2-0.4-0.2-0.7s0.1-0.5,0.2-0.7c0.1-0.2,0.3-0.4,0.5-0.6c0.5-0.4,1.1-0.5,1.8-0.5c0.7,0,1.3,0.2,1.9,0.6
		c0.6-0.4,1.3-0.6,2.1-0.6s1.5,0.3,2.1,0.8c1.2-0.5,2.6-0.8,4.2-0.8c1.2,0,2.2,0.1,3,0.4l1.5,0.5c0.2,0.1,0.4,0.1,0.5,0.1
		c0.3,0,0.5-0.3,0.5-0.8c0-0.1,0-0.4-0.1-0.7c0.3-0.1,0.7-0.1,1.2-0.1c0.5,0,0.9,0.2,1.3,0.6c0.3,0.4,0.5,0.9,0.5,1.6
		s-0.1,1.2-0.3,1.5c0.3,0.5,0.5,1.2,0.5,1.9s-0.2,1.4-0.7,1.9c0.1,0.4,0.2,0.8,0.2,1.1c0,0.4-0.1,0.7-0.2,1
		c-0.1,0.3-0.2,0.6-0.4,0.8c-0.3,0.4-0.7,0.6-1,0.6c-0.5,0-0.9-0.1-1.3-0.3c0.1-0.3,0.2-0.8,0.2-1.4c0-1.4-0.3-2.7-1-3.8
		c-0.9-1.5-2.2-2.2-3.9-2.2c-0.9,0-1.7,0.2-2.4,0.7c-0.7,0.5-1.2,1.2-1.5,2.1v7.5c0.4,0.3,0.8,0.4,1.1,0.4s0.6,0,0.8,0
		c0.2,0,0.4,0,0.5-0.1c0.5-0.1,0.8-0.2,1.1-0.3c0.5-0.3,0.7-0.9,0.7-1.9c0-0.6-0.1-1-0.4-1.3c0.2-0.2,0.5-0.3,0.9-0.3
		c0.8,0,1.3,0.3,1.7,1.1c0.1,0.2,0.2,0.5,0.2,0.8c0,0.3-0.1,0.7-0.2,1.1c0.5,0.6,0.7,1.3,0.7,2.2s-0.2,1.6-0.7,2.2
		c0.1,0.4,0.2,0.8,0.2,1.2s-0.1,0.7-0.2,1s-0.3,0.6-0.5,0.8c-0.4,0.4-0.8,0.5-1.2,0.5c-0.3,0-0.6-0.1-0.9-0.3c0.2-0.5,0.4-1,0.4-1.6
		c0-1.2-0.3-2-0.9-2.2c-0.5-0.2-1.1-0.3-1.8-0.3c-0.7,0-1.2,0.1-1.6,0.4v9.7c0.7,1.3,2,2,3.9,2c2.2,0,3.6-0.8,4.4-2.3
		c0.9-1.7,1.4-3.6,1.4-5.5c0-0.6,0-1-0.1-1.3c0.3-0.3,0.6-0.5,0.9-0.5s0.5,0,0.7,0.1c0.2,0.1,0.3,0.2,0.4,0.4
		c0.3,0.3,0.4,0.7,0.4,1.1l-0.1,1c0,0.2,0.1,0.4,0.2,0.6c0.2,0.3,0.3,0.5,0.3,0.8s-0.1,0.5-0.2,0.9c0.3,0.2,0.5,0.4,0.7,0.7
		c0.2,0.3,0.3,0.7,0.3,1c0,0.7-0.3,1.4-0.8,2c0.2,0.4,0.4,1,0.4,1.7s-0.2,1.4-0.6,1.9c-0.4,0.5-0.9,0.8-1.5,0.8c-0.3,0-0.7,0-1-0.1
		c0-0.3,0.1-0.6,0.1-0.9c0-0.6-0.2-0.9-0.7-0.9c-0.5,0-1.1,0.1-1.6,0.4c-1.3,0.6-2.7,0.9-4.4,0.9c-1.6,0-3-0.2-4.2-0.7
		C209.7,242.2,209,242.4,208.2,242.4z M206.6,236.9c0.6-0.2,0.9-1.1,1-2.5c0.1-1.5,0.1-3.5,0.1-6c0-2.6,0-4.3,0-5.1s0-1.5,0-2.1
		c0-1.5-0.2-2.5-0.4-2.8s-0.4-0.5-0.6-0.6c0,4.5-0.1,7.1-0.2,7.7c-0.2,0.5-0.6,0.9-1.2,1.1c0.7,0.3,1.1,0.6,1.2,1
		c0.1,0.6,0.2,2.9,0.2,6.8V236.9z M211,236.7C211,236.7,211,236.8,211,236.7L211,236.7z"/>
	<path class="st1" d="M233.1,242.4c-0.8,0-1.4-0.2-2-0.6c-0.6,0.4-1.1,0.6-1.6,0.6c-0.5,0-0.9,0-1.2-0.1c-0.3-0.1-0.6-0.2-0.8-0.4
		c-0.5-0.3-0.7-0.8-0.7-1.3c0-0.3,0.1-0.5,0.2-0.7c0.3,0.2,0.6,0.3,1,0.3c1,0,1.7-0.5,2.1-1.5v-9.5c0-0.6-0.1-1-0.3-1.3
		c-0.3-0.5-0.9-1-1.8-1.4c0.8-0.4,1.3-0.8,1.5-1.1c0.4-0.5,0.6-1.1,0.6-1.7v-8.2c-0.4-1-1.1-1.5-2.1-1.5c-0.4,0-0.7,0.1-1,0.3
		c-0.1-0.2-0.2-0.4-0.2-0.7s0.1-0.5,0.2-0.7c0.1-0.2,0.3-0.4,0.5-0.6c0.5-0.4,1.1-0.5,1.8-0.5c0.7,0,1.3,0.2,1.9,0.6
		c0.6-0.4,1.2-0.6,1.9-0.6c0.7,0,1.3,0.2,1.9,0.5c1.4-0.5,2.6-0.7,3.8-0.7c1.2,0,2.2,0.1,3.1,0.2c0.9,0.1,1.8,0.4,2.6,0.7
		s1.6,0.8,2.3,1.4c0.7,0.6,1.4,1.3,1.9,2.2c1.2,1.9,2,4.4,2.3,7.5c0.1,0.8,0.2,1.3,0.4,1.6c0.4,0.5,0.9,0.9,1.5,1.1
		c-0.7,0.3-1.1,0.6-1.3,0.9c-0.3,0.5-0.6,1.1-0.6,1.9c-0.4,4.3-1.7,7.6-3.9,10c-2.1,2.3-4.8,3.4-8.2,3.4c-1.3,0-2.6-0.2-3.6-0.7
		C234.6,242.3,234,242.4,233.1,242.4z M231.6,236.9c0.6-0.2,0.9-1.1,1-2.5c0.1-1.5,0.1-3.5,0.1-6c0-2.6,0-4.3,0-5.1s0-1.5,0-2.1
		c0-1.5-0.2-2.5-0.4-2.8s-0.4-0.5-0.6-0.6c0,4.5-0.1,7.1-0.2,7.7c-0.2,0.5-0.6,0.9-1.2,1.1c0.7,0.3,1.1,0.6,1.2,1
		c0.1,0.6,0.2,2.9,0.2,6.8V236.9z M236.3,239c0.6,0.7,1.3,1.1,2.2,1.1c0.9,0,1.7-0.2,2.4-0.6c0.7-0.4,1.2-1,1.7-1.9
		c0.9-1.8,1.4-4.5,1.4-8.2c0-0.8-0.1-1.4-0.3-1.7c-0.3-0.4-0.8-0.8-1.5-1.1c0.7-0.3,1.2-0.5,1.4-0.8c0.3-0.5,0.5-1.1,0.5-1.8
		s0-1.4-0.1-2.1c-0.1-0.7-0.2-1.4-0.4-2.1c-0.2-0.7-0.5-1.4-0.8-2c-0.3-0.6-0.7-1.2-1.1-1.7c-0.9-1.1-2-1.6-3.3-1.6
		c-0.4,0-0.8,0-1.1,0s-0.6,0.1-0.8,0.4V239z M244.9,217.7c0.9,2.7,1.3,5,1.3,7c0,0.7,0,1.1-0.1,1.2c-0.1,0.1-0.2,0.2-0.3,0.3
		c-0.2,0.2-0.4,0.3-0.7,0.4c0.7,0.4,1.1,0.7,1.1,1c0,0.1,0,0.3,0,0.4v0.5c0,1.8-0.2,3.4-0.5,5.1c-0.3,1.6-0.6,2.8-0.7,3.3
		c0.5-0.2,0.9-0.6,1.1-1.2c0.2-0.6,0.4-1.3,0.6-1.9c0.2-0.7,0.3-1.4,0.4-2.2c0.2-1.6,0.3-3.3,0.3-5c0-3.1-0.4-5.6-1.2-7.5
		C245.8,218.3,245.4,217.9,244.9,217.7z"/>
</g>
<rect id="border" x="37.3" y="38.3" class="st2" width="233.4" height="233.4"/>
<g id="fist">
	<g>
		<path class="st3" d="M173.8,148.7c1.7,0.7,1.7,1.7,3.4,2c0.7,0.1,1.4,0.1,2.3,0c0.8-0.1,1.6-0.2,2.3-0.5c1.3-0.6,1.9-1.9,2.3-2.7
			c2.3-5.3,1.6-9.2,4.1-14c0.4-0.8,1.1-2.1,1.8-4.1c0.8-2.4,0.9-3.9,0.9-4.5c0-1.4-0.3-2.5-0.5-3.2c-1.1-4.2-2.9-8.2-3.6-9.9
			c-1.8-4.1-2.7-6.2-3.6-8.6c-1.5-3.8-2-5.2-3.6-6.8c-0.8-0.8-2.5-2.1-5-2.7c-3.2-0.7-5.9,0.3-8.6,1.4c-2.4,0.9-4.6,2.2-5.4,2.7
			c-2.4,1.4-3.6,2.4-5.9,2.7c-0.1,0-0.1,0-2.7,0c-4.6,0-4,0-5,0c-3.1-0.1-3.3-0.3-4.5,0c-0.8,0.2-0.5,0.2-3.2,1.4
			c-1.3,0.6-2.6,1.1-3.5,1.4c-0.7,0.3-1.2,0.7-1.7,1.2c-0.3,0.4-0.7,0.8-1.1,1c-0.7,0.3-1.1,0-2.3,0c-1.2,0-2.1,0.4-3.2,0.9
			c-0.3,0.2-2.2,1-3.6,2.7c-2.2,2.6-2.8,6.4-2.3,9.5c0.6,3.1,2.2,4.5,1.4,6.8c-0.3,0.8-0.7,0.9-1.4,2.3c-0.3,0.7-1,2-1.4,4.5
			c-0.7,4.4-1.2,7.4,0.5,9.9c1.1,1.7,2.5,2.3,4.1,5c0.3,0.5,0.7,1.2,0.9,2.3c0.3,1.5,0.1,2.6,0,3.2c-0.1,0.6-1,5.9,1.4,9
			c0.2,0.2,0,0,3.6,3.6c0.5,0.5,1,1,1.4,1.8c0.6,1.3,0.4,2.4,0.5,3.2c0,2.3,1.1,4,2.3,5.9c0.7,1.1,2.2,3.5,5,5
			c1.8,1,3.6,1.1,7.2,1.4c2.7,0.2,3.5,0,9,0c4.2,0,4.3,0.1,7.2,0c7.3-0.2,8.6-0.8,9.5-1.4c2.4-1.6,3.3-4.2,3.6-5
			c0.8-2.4,0.6-4.4,0.5-5.4c-0.3-2.3-1.2-4-1.8-5c0.7-0.8,1.6-2.2,2.3-4.1c1-3,1.1-5.8,0.5-6.8C175.3,151.7,173.8,150.1,173.8,148.7
			z"/>
		<path class="st3" d="M186.8,136.8c-1.5,0-1.4,0-2.9,0c-0.5-0.2-3.1-0.4-3.8,0c-0.5,0.3-0.8,0.7-1.4,3.2c-0.6,2.5-1.6,5.9-1.6,5.9
			c0.2,0.4,0.7,1,1.8,1.8c0.3,0.2,1.8,0.3,2.9,0.5c1.7,0.2,1.7-0.2,2-0.5"/>
		<path class="st4" d="M145.2,103.9c1.4,0,3.2,0,5.3,0.1c0.9,0.1,3.4,0.2,6.9,0.8c1.7,0.3,10.9,2.3,10.9,2.3s-0.5-2.3,1.8-3.2
			c0,0-0.5,2.3,0,3.2c0,0,1.8,1.4,2.7,5.1c0.9,3.7,3.2,11.1,0,17.1c0.8,1.3,1.8,3.4,2.1,6.2c0.1,0.8,0.1,1.4,0.1,2.1
			c0.1,5.6-1.4,10.7-1.4,10.7c0,0,0,0,0-0.1c0.2-0.9,1.2-7.1,0-11.7c-0.4-1.5-0.6-2.5-1.4-3.6c-1.1-1.8-2.2-2-2.3-3.2
			c-0.1-1.2,1-1.6,1.8-3.6c0.1-0.3,0.4-1.1,0.5-3.6c0.1-3.2,0.1-5.6-0.9-8.6c-0.5-1.5-1-2.9-2.3-4.1c-1.4-1.3-3-1.7-5.4-2.3
			c-6.3-1.3-9.9-1.7-14.4-2.7C147.6,104.6,146.1,104.2,145.2,103.9z"/>
		<path class="st4" d="M133.7,128.5c-1-0.1-2.6-0.1-4.5,0.5c-1.2,0.4-2.8,0.8-4.1,2.3c-1.5,1.7-1.8,3.7-1.8,4.5
			c-0.1-0.3-1.3-3.6,0.5-5.9c0.9-1.2,2.2-1.5,3.2-1.8C129.8,127.2,132.4,128,133.7,128.5z"/>
		<path class="st4" d="M136.8,149.6c0,0.2-1.5,0-3.6,0.9c-0.5,0.2-1.6,0.7-2.7,1.8c-1.9,1.9-2.1,4.1-2.3,4.1c-0.2,0-0.1-2.4,1.4-4.5
			c0.4-0.7,1.1-1.6,2.3-2.3C134.2,148.5,136.8,149.4,136.8,149.6z"/>
		<path class="st4" d="M144.9,166.5c2,0.3,4.7,0.6,7.9,0.7c4.9,0.2,4.7-0.3,11.3-0.5c5.2-0.1,6.4,0.2,8.1-0.9
			c2.6-1.7,3.4-4.5,3.6-5.4c0.1-0.6,1-4.6-1.4-7.2c-1.2-1.3-2.8-1.9-5-2.3c-8-1.4-12.3,1.7-20.7,1.4c-2.7-0.1-5-0.6-6.3-0.9
			c3.5,0.3,5.3,0.1,5.4-0.5c0.1-0.3-0.4-0.8-1.4-1.4c0.9,0.3,2.3,0.7,4.1,0.9c2.8,0.2,3.6-0.4,7.2-0.9c3.7-0.5,4.2,0,9.9-0.5
			c2.9-0.3,3.4,0,4.1-0.5c2.7-1.8,2.5-8.8,2.5-9.2c0-0.7-1.7-4.3-2-4.7c-1-1.7-2.4-2.7-3.2-3.2c-4.8,0.4-10.4,0.6-16.7,0
			c-4.3-0.4-8.2-1-11.7-1.8c4.7,0,9.3,0,14,0c4.8,0,9.6,0,14.4,0c1.2-0.9,1.6-1.7,1.8-2.3c0.4-1.1,0.3-2.3,0.1-4.6
			c0-0.4,0-0.4-0.1-0.8c-0.1-1.2-0.2-2.9,0-5c0.6,4.5,1.2,9,1.8,13.5c0.5,3.8,1.9,6.6,2,8.8c0.4,4.9-0.8,6.5,0.7,9.2
			c1.1,2.1,2.7,4.1,2.7,7.2c0.1,3.6-1.4,6.3-1.4,6.3c-0.9,1.7-1.7,2.2-1.8,3.6c-0.1,1.7,1.1,2.5,1.8,4.1c1.3,3.1-0.1,7.6-2.7,9.9
			c-2.5,2.3-5.8,2.1-11.3,1.8c-2.2-0.1-4.3-0.5-8.6-1.4c-2.6-0.5-7.3-1.4-7.2-1.8c0-0.4,3.5-0.4,6.8,0c2,0.3,2.1,0.5,4.5,0.9
			c3.7,0.7,6.4,1.1,9.5,0.5c1.8-0.4,3.8-0.9,5.4-2.7c1.7-2,2.5-5.2,1.4-7.7c-0.3-0.6-0.6-1-0.9-1.4c-5.9,1.1-13.7,1.8-22.5,0
			C148.8,167.7,146.8,167.1,144.9,166.5z"/>
	</g>
	<g>
		<path class="st5" d="M176,144.5c1.7,0.7,1.7,1.7,3.4,2c0.7,0.1,1.4,0.1,2.3,0c0.8-0.1,1.6-0.2,2.3-0.5c1.3-0.6,1.9-1.9,2.3-2.7
			c2.3-5.3,1.6-9.2,4.1-14c0.4-0.8,1.1-2.1,1.8-4.1c0.8-2.4,0.9-3.9,0.9-4.5c0-1.4-0.3-2.5-0.5-3.2c-1.1-4.2-2.9-8.2-3.6-9.9
			c-1.8-4.1-2.7-6.2-3.6-8.6c-1.5-3.8-2-5.2-3.6-6.8c-0.8-0.8-2.5-2.1-5-2.7c-3.2-0.7-5.9,0.3-8.6,1.4c-2.4,0.9-4.6,2.2-5.4,2.7
			c-2.4,1.4-3.6,2.4-5.9,2.7c-0.1,0-0.1,0-2.7,0c-4.6,0-4,0-5,0c-3.1-0.1-3.3-0.3-4.5,0c-0.8,0.2-0.5,0.2-3.2,1.4
			c-1.3,0.6-2.6,1.1-3.5,1.4c-0.7,0.3-1.2,0.7-1.7,1.2c-0.3,0.4-0.7,0.8-1.1,1c-0.7,0.3-1.1,0-2.3,0c-1.2,0-2.1,0.4-3.2,0.9
			c-0.3,0.2-2.2,1-3.6,2.7c-2.2,2.6-2.8,6.4-2.3,9.5c0.6,3.1,2.2,4.5,1.4,6.8c-0.3,0.8-0.7,0.9-1.4,2.3c-0.3,0.7-1,2-1.4,4.5
			c-0.7,4.4-1.2,7.4,0.5,9.9c1.1,1.7,2.5,2.3,4.1,5c0.3,0.5,0.7,1.2,0.9,2.3c0.3,1.5,0.1,2.6,0,3.2c-0.1,0.6-1,5.9,1.4,9
			c0.2,0.2,0,0,3.6,3.6c0.5,0.5,1,1,1.4,1.8c0.6,1.3,0.4,2.4,0.5,3.2c0,2.3,1.1,4,2.3,5.9c0.7,1.1,2.2,3.5,5,5
			c1.8,1,3.6,1.1,7.2,1.4c2.7,0.2,3.5,0,9,0c4.2,0,4.3,0.1,7.2,0c7.3-0.2,8.6-0.8,9.5-1.4c2.4-1.6,3.3-4.2,3.6-5
			c0.8-2.4,0.6-4.4,0.5-5.4c-0.3-2.3-1.2-4-1.8-5c0.7-0.8,1.6-2.2,2.3-4.1c1-3,1.1-5.8,0.5-6.8C177.6,147.4,176,145.8,176,144.5z"/>
		<path class="st5" d="M189.1,132.5c-1.5,0-1.4,0-2.9,0c-0.5-0.2-3.1-0.4-3.8,0c-0.5,0.3-0.8,0.7-1.4,3.2c-0.6,2.5-1.6,5.9-1.6,5.9
			c0.2,0.4,0.7,1,1.8,1.8c0.3,0.2,1.8,0.3,2.9,0.5c1.7,0.2,1.7-0.2,2-0.5"/>
		<path class="st6" d="M147.4,99.7c1.4,0,3.2,0,5.3,0.1c0.9,0.1,3.4,0.2,6.9,0.8c1.7,0.3,10.9,2.3,10.9,2.3s-0.5-2.3,1.8-3.2
			c0,0-0.5,2.3,0,3.2c0,0,1.8,1.4,2.7,5.1c0.9,3.7,3.2,11.1,0,17.1c0.8,1.3,1.8,3.4,2.1,6.2c0.1,0.8,0.1,1.4,0.1,2.1
			c0.1,5.6-1.4,10.7-1.4,10.7c0,0,0,0,0-0.1c0.2-0.9,1.2-7.1,0-11.7c-0.4-1.5-0.6-2.5-1.4-3.6c-1.1-1.8-2.2-2-2.3-3.2
			c-0.1-1.2,1-1.6,1.8-3.6c0.1-0.3,0.4-1.1,0.5-3.6c0.1-3.2,0.1-5.6-0.9-8.6c-0.5-1.5-1-2.9-2.3-4.1c-1.4-1.3-3-1.7-5.4-2.3
			c-6.3-1.3-9.9-1.7-14.4-2.7C149.8,100.3,148.3,99.9,147.4,99.7z"/>
		<path class="st6" d="M135.9,124.2c-1-0.1-2.6-0.1-4.5,0.5c-1.2,0.4-2.8,0.8-4.1,2.3c-1.5,1.7-1.8,3.7-1.8,4.5
			c-0.1-0.3-1.3-3.6,0.5-5.9c0.9-1.2,2.2-1.5,3.2-1.8C132.1,122.9,134.6,123.7,135.9,124.2z"/>
		<path class="st6" d="M139.1,145.4c0,0.2-1.5,0-3.6,0.9c-0.5,0.2-1.6,0.7-2.7,1.8c-1.9,1.9-2.1,4.1-2.3,4.1c-0.2,0-0.1-2.4,1.4-4.5
			c0.4-0.7,1.1-1.6,2.3-2.3C136.4,144.2,139.1,145.1,139.1,145.4z"/>
		<path class="st6" d="M147.2,162.3c2,0.3,4.7,0.6,7.9,0.7c4.9,0.2,4.7-0.3,11.3-0.5c5.2-0.1,6.4,0.2,8.1-0.9
			c2.6-1.7,3.4-4.5,3.6-5.4c0.1-0.6,1-4.6-1.4-7.2c-1.2-1.3-2.8-1.9-5-2.3c-8-1.4-12.3,1.7-20.7,1.4c-2.7-0.1-5-0.6-6.3-0.9
			c3.5,0.3,5.3,0.1,5.4-0.5c0.1-0.3-0.4-0.8-1.4-1.4c0.9,0.3,2.3,0.7,4.1,0.9c2.8,0.2,3.6-0.4,7.2-0.9c3.7-0.5,4.2,0,9.9-0.5
			c2.9-0.3,3.4,0,4.1-0.5c2.7-1.8,2.5-8.8,2.5-9.2c0-0.7-1.7-4.3-2-4.7c-1-1.7-2.4-2.7-3.2-3.2c-4.8,0.4-10.4,0.6-16.7,0
			c-4.3-0.4-8.2-1-11.7-1.8c4.7,0,9.3,0,14,0c4.8,0,9.6,0,14.4,0c1.2-0.9,1.6-1.7,1.8-2.3c0.4-1.1,0.3-2.3,0.1-4.6
			c0-0.4,0-0.4-0.1-0.8c-0.1-1.2-0.2-2.9,0-5c0.6,4.5,1.2,9,1.8,13.5c0.5,3.8,1.9,6.6,2,8.8c0.4,4.9-0.8,6.5,0.7,9.2
			c1.1,2.1,2.7,4.1,2.7,7.2c0.1,3.6-1.4,6.3-1.4,6.3c-0.9,1.7-1.7,2.2-1.8,3.6c-0.1,1.7,1.1,2.5,1.8,4.1c1.3,3.1-0.1,7.6-2.7,9.9
			c-2.5,2.3-5.8,2.1-11.3,1.8c-2.2-0.1-4.3-0.5-8.6-1.4c-2.6-0.5-7.3-1.4-7.2-1.8c0-0.4,3.5-0.4,6.8,0c2,0.3,2.1,0.5,4.5,0.9
			c3.7,0.7,6.4,1.1,9.5,0.5c1.8-0.4,3.8-0.9,5.4-2.7c1.7-2,2.5-5.2,1.4-7.7c-0.3-0.6-0.6-1-0.9-1.4c-5.9,1.1-13.7,1.8-22.5,0
			C151.1,163.4,149.1,162.9,147.2,162.3z"/>
	</g>
	<g>
		<path class="st7" d="M173.8,146.4c1.7,0.7,1.7,1.7,3.4,2c0.7,0.1,1.4,0.1,2.3,0c0.8-0.1,1.6-0.2,2.3-0.5c1.3-0.6,1.9-1.9,2.3-2.7
			c2.3-5.3,1.6-9.2,4.1-14c0.4-0.8,1.1-2.1,1.8-4.1c0.8-2.4,0.9-3.9,0.9-4.5c0-1.4-0.3-2.5-0.5-3.2c-1.1-4.2-2.9-8.2-3.6-9.9
			c-1.8-4.1-2.7-6.2-3.6-8.6c-1.5-3.8-2-5.2-3.6-6.8c-0.8-0.8-2.5-2.1-5-2.7c-3.2-0.7-5.9,0.3-8.6,1.4c-2.4,0.9-4.6,2.2-5.4,2.7
			c-2.4,1.4-3.6,2.4-5.9,2.7c-0.1,0-0.1,0-2.7,0c-4.6,0-4,0-5,0c-3.1-0.1-3.3-0.3-4.5,0c-0.8,0.2-0.5,0.2-3.2,1.4
			c-1.3,0.6-2.6,1.1-3.5,1.4c-0.7,0.3-1.2,0.7-1.7,1.2c-0.3,0.4-0.7,0.8-1.1,1c-0.7,0.3-1.1,0-2.3,0c-1.2,0-2.1,0.4-3.2,0.9
			c-0.3,0.2-2.2,1-3.6,2.7c-2.2,2.6-2.8,6.4-2.3,9.5c0.6,3.1,2.2,4.5,1.4,6.8c-0.3,0.8-0.7,0.9-1.4,2.3c-0.3,0.7-1,2-1.4,4.5
			c-0.7,4.4-1.2,7.4,0.5,9.9c1.1,1.7,2.5,2.3,4.1,5c0.3,0.5,0.7,1.2,0.9,2.3c0.3,1.5,0.1,2.6,0,3.2c-0.1,0.6-1,5.9,1.4,9
			c0.2,0.2,0,0,3.6,3.6c0.5,0.5,1,1,1.4,1.8c0.6,1.3,0.4,2.4,0.5,3.2c0,2.3,1.1,4,2.3,5.9c0.7,1.1,2.2,3.5,5,5
			c1.8,1,3.6,1.1,7.2,1.4c2.7,0.2,3.5,0,9,0c4.2,0,4.3,0.1,7.2,0c7.3-0.2,8.6-0.8,9.5-1.4c2.4-1.6,3.3-4.2,3.6-5
			c0.8-2.4,0.6-4.4,0.5-5.4c-0.3-2.3-1.2-4-1.8-5c0.7-0.8,1.6-2.2,2.3-4.1c1-3,1.1-5.8,0.5-6.8C175.3,149.3,173.8,147.8,173.8,146.4
			z"/>
		<path class="st7" d="M186.8,134.5c-1.5,0-1.4,0-2.9,0c-0.5-0.2-3.1-0.4-3.8,0c-0.5,0.3-0.8,0.7-1.4,3.2c-0.6,2.5-1.6,5.9-1.6,5.9
			c0.2,0.4,0.7,1,1.8,1.8c0.3,0.2,1.8,0.3,2.9,0.5c1.7,0.2,1.7-0.2,2-0.5"/>
		<path class="st8" d="M145.2,101.6c1.4,0,3.2,0,5.3,0.1c0.9,0.1,3.4,0.2,6.9,0.8c1.7,0.3,10.9,2.3,10.9,2.3s-0.5-2.3,1.8-3.2
			c0,0-0.5,2.3,0,3.2c0,0,1.8,1.4,2.7,5.1s3.2,11.1,0,17.1c0.8,1.3,1.8,3.4,2.1,6.2c0.1,0.8,0.1,1.4,0.1,2.1
			c0.1,5.6-1.4,10.7-1.4,10.7c0,0,0,0,0-0.1c0.2-0.9,1.2-7.1,0-11.7c-0.4-1.5-0.6-2.5-1.4-3.6c-1.1-1.8-2.2-2-2.3-3.2
			c-0.1-1.2,1-1.6,1.8-3.6c0.1-0.3,0.4-1.1,0.5-3.6c0.1-3.2,0.1-5.6-0.9-8.6c-0.5-1.5-1-2.9-2.3-4.1c-1.4-1.3-3-1.7-5.4-2.3
			c-6.3-1.3-9.9-1.7-14.4-2.7C147.6,102.3,146.1,101.8,145.2,101.6z"/>
		<path class="st8" d="M133.7,126.1c-1-0.1-2.6-0.1-4.5,0.5c-1.2,0.4-2.8,0.8-4.1,2.3c-1.5,1.7-1.8,3.7-1.8,4.5
			c-0.1-0.3-1.3-3.6,0.5-5.9c0.9-1.2,2.2-1.5,3.2-1.8C129.8,124.8,132.4,125.6,133.7,126.1z"/>
		<path class="st8" d="M136.8,147.3c0,0.2-1.5,0-3.6,0.9c-0.5,0.2-1.6,0.7-2.7,1.8c-1.9,1.9-2.1,4.1-2.3,4.1c-0.2,0-0.1-2.4,1.4-4.5
			c0.4-0.7,1.1-1.6,2.3-2.3C134.2,146.1,136.8,147,136.8,147.3z"/>
		<path class="st8" d="M144.9,164.2c2,0.3,4.7,0.6,7.9,0.7c4.9,0.2,4.7-0.3,11.3-0.5c5.2-0.1,6.4,0.2,8.1-0.9
			c2.6-1.7,3.4-4.5,3.6-5.4c0.1-0.6,1-4.6-1.4-7.2c-1.2-1.3-2.8-1.9-5-2.3c-8-1.4-12.3,1.7-20.7,1.4c-2.7-0.1-5-0.6-6.3-0.9
			c3.5,0.3,5.3,0.1,5.4-0.5c0.1-0.3-0.4-0.8-1.4-1.4c0.9,0.3,2.3,0.7,4.1,0.9c2.8,0.2,3.6-0.4,7.2-0.9c3.7-0.5,4.2,0,9.9-0.5
			c2.9-0.3,3.4,0,4.1-0.5c2.7-1.8,2.5-8.8,2.5-9.2c0-0.7-1.7-4.3-2-4.7c-1-1.7-2.4-2.7-3.2-3.2c-4.8,0.4-10.4,0.6-16.7,0
			c-4.3-0.4-8.2-1-11.7-1.8c4.7,0,9.3,0,14,0c4.8,0,9.6,0,14.4,0c1.2-0.9,1.6-1.7,1.8-2.3c0.4-1.1,0.3-2.3,0.1-4.6
			c0-0.4,0-0.4-0.1-0.8c-0.1-1.2-0.2-2.9,0-5c0.6,4.5,1.2,9,1.8,13.5c0.5,3.8,1.9,6.6,2,8.8c0.4,4.9-0.8,6.5,0.7,9.2
			c1.1,2.1,2.7,4.1,2.7,7.2c0.1,3.6-1.4,6.3-1.4,6.3c-0.9,1.7-1.7,2.2-1.8,3.6c-0.1,1.7,1.1,2.5,1.8,4.1c1.3,3.1-0.1,7.6-2.7,9.9
			c-2.5,2.3-5.8,2.1-11.3,1.8c-2.2-0.1-4.3-0.5-8.6-1.4c-2.6-0.5-7.3-1.4-7.2-1.8c0-0.4,3.5-0.4,6.8,0c2,0.3,2.1,0.5,4.5,0.9
			c3.7,0.7,6.4,1.1,9.5,0.5c1.8-0.4,3.8-0.9,5.4-2.7c1.7-2,2.5-5.2,1.4-7.7c-0.3-0.6-0.6-1-0.9-1.4c-5.9,1.1-13.7,1.8-22.5,0
			C148.8,165.3,146.8,164.8,144.9,164.2z"/>
	</g>
</g>
</svg>
