<?xml version="1.0" encoding="utf-8"?>
<!-- Generator: Adobe Illustrator 23.0.3, SVG Export Plug-In . SVG Version: 6.00 Build 0)  -->
<svg version="1.1" id="logo" xmlns="http://www.w3.org/2000/svg" xmlns:xlink="http://www.w3.org/1999/xlink" x="0px" y="0px"
	 viewBox="0 0 585.47 540.06" style="enable-background:new 0 0 585.47 540.06;" xml:space="preserve">
<style type="text/css">
	.st0{fill:none;stroke:#FFFFFF;stroke-width:2;stroke-miterlimit:10;}
	.st1{opacity:0.74;}
	.st2{opacity:0.76;fill:none;stroke:#CF167B;stroke-width:10;stroke-miterlimit:10;}
	.st3{fill:none;stroke:#CF167B;stroke-width:5;stroke-miterlimit:10;}
	.st4{fill:none;stroke:#CF167B;stroke-width:3;stroke-miterlimit:10;}
	.st5{fill:#CF167B;}
	.st6{opacity:0.51;}
	.st7{fill:none;stroke:#53C9EF;stroke-width:4;stroke-miterlimit:10;}
	.st8{fill:none;stroke:#53C9EF;stroke-miterlimit:10;}
	.st9{opacity:0.63;}
	.st10{fill:none;stroke:#FFFFFF;stroke-miterlimit:10;}
</style>
<rect id="border" x="102.46" y="95.64" class="st0" width="370.24" height="370.24"/>
<g id="lightning" class="st1">
	<path class="st2" d="M320.37,238.84c2.89,1.28-1.65-1.12,1.12-0.56c1.17,0.24,2.4,0.14,3.78,0c1.39-0.14,2.66-0.27,3.78-0.82
		c2.17-1.06,3.19-3.42,3.78-4.9c3.79-9.58,2.7-16.63,6.8-25.34c0.66-1.41,1.88-3.75,3.02-7.36c1.41-4.43,1.51-7.01,1.51-8.17
		c0.01-2.55-0.45-4.49-0.76-5.72c-1.89-7.56-4.82-14.9-6.05-17.98c-2.98-7.51-4.46-11.27-6.05-15.53
		c-2.55-6.87-3.34-9.47-6.05-12.26c-1.4-1.45-4.24-3.89-8.31-4.9c-5.36-1.33-9.84,0.55-14.36,2.45c-4.03,1.7-7.65,4-9.07,4.9
		c-3.99,2.54-6.07,4.42-9.82,4.9c-0.23,0.03-0.13,0.01-4.53,0c-7.73-0.02-6.7,0.04-8.31,0c-5.17-0.13-5.61-0.49-7.56,0
		c-1.26,0.32-0.84,0.41-5.29,2.45c-2.2,1.01-4.43,1.96-5.89,2.58c-1.11,0.47-2.08,1.23-2.84,2.23c-0.53,0.7-1.14,1.39-1.85,1.73
		c-1.24,0.59-1.86-0.02-3.78,0c-2.07,0.03-3.57,0.78-5.29,1.63c-0.56,0.28-3.65,1.86-6.05,4.9c-3.69,4.69-4.74,11.6-3.78,17.17
		c0.97,5.63,3.72,8.23,2.27,12.26c-0.55,1.52-1.11,1.62-2.27,4.09c-0.57,1.22-1.61,3.7-2.27,8.17c-1.16,7.93-1.96,13.4,0.76,17.98
		c1.78,3,4.17,4.09,6.8,8.99c0.46,0.85,1.14,2.21,1.51,4.09c0.53,2.66,0.14,4.79,0,5.72c-0.17,1.12-1.65,10.7,2.27,16.35
		c0.31,0.45,0.07,0.03,6.05,6.54c0.82,0.9,1.64,1.81,2.27,3.27c0.98,2.3,0.75,4.27,0.76,5.72c0.01,4.09,1.82,7.23,3.78,10.63
		c1.15,2,3.62,6.29,8.31,8.99c3.02,1.74,6.09,2,12.09,2.45c4.61,0.34,5.9,0.06,15.11,0c7.02-0.04,7.15,0.12,12.09,0
		c12.29-0.29,14.39-1.36,15.87-2.45c4.02-2.95,5.58-7.56,6.05-8.99c1.41-4.34,0.98-8.03,0.76-9.81c-0.54-4.21-2.05-7.3-3.02-8.99
		c1.13-1.5,2.71-3.96,3.78-7.36c1.73-5.49,1.87-10.57,0.76-12.26C318.47,239.92,320.37,241.29,320.37,238.84z"/>
</g>
<g id="fist">
	<g>
		<g>
			<g>
				<g>
					<path class="st3" d="M318.09,238.47c2.89,1.27,0.62-0.88,3.39-0.32c1.17,0.24,2.4,0.14,3.78,0c1.39-0.14,2.66-0.27,3.78-0.81
						c2.17-1.05,3.19-3.4,3.78-4.87c3.79-9.51,2.7-16.52,6.8-25.16c0.66-1.4,1.88-3.72,3.02-7.31c1.41-4.4,1.51-6.96,1.51-8.12
						c0.01-2.53-0.45-4.46-0.76-5.68c-1.89-7.51-4.82-14.79-6.05-17.86c-2.98-7.46-4.46-11.19-6.05-15.42
						c-2.55-6.82-3.34-9.4-6.05-12.18c-1.4-1.44-4.24-3.86-8.31-4.87c-5.36-1.32-9.84,0.55-14.36,2.44
						c-4.03,1.68-7.65,3.97-9.07,4.87c-3.99,2.53-6.07,4.39-9.82,4.87c-0.23,0.03-0.13,0.01-4.53,0c-7.73-0.02-6.7,0.04-8.31,0
						c-5.17-0.13-5.61-0.49-7.56,0c-1.26,0.32-0.84,0.41-5.29,2.43c-2.2,1-4.43,1.95-5.89,2.56c-1.11,0.46-2.08,1.22-2.84,2.21
						c-0.53,0.69-1.14,1.38-1.85,1.72c-1.24,0.59-1.86-0.02-3.78,0c-2.07,0.03-3.57,0.77-5.29,1.62c-0.56,0.28-3.65,1.85-6.05,4.87
						c-3.69,4.66-4.74,11.52-3.78,17.05c0.97,5.59,3.72,8.17,2.27,12.18c-0.55,1.51-1.11,1.61-2.27,4.06
						c-0.57,1.21-1.61,3.68-2.27,8.12c-1.16,7.88-1.96,13.31,0.76,17.86c1.78,2.98,4.17,4.07,6.8,8.93c0.46,0.85,1.14,2.2,1.51,4.06
						c0.53,2.64,0.14,4.75,0,5.68c-0.17,1.11-1.65,10.63,2.27,16.23c0.31,0.45,0.07,0.03,6.05,6.49c0.82,0.89,1.64,1.79,2.27,3.25
						c0.98,2.28,0.75,4.24,0.76,5.68c0.01,4.06,1.82,7.18,3.78,10.55c1.15,1.99,3.62,6.24,8.31,8.93c3.02,1.73,6.09,1.99,12.09,2.44
						c4.61,0.34,5.9,0.06,15.11,0c7.02-0.04,7.15,0.12,12.09,0c12.29-0.29,14.39-1.36,15.87-2.44c4.02-2.93,5.58-7.51,6.05-8.93
						c1.41-4.31,0.98-7.98,0.76-9.74c-0.54-4.18-2.05-7.25-3.02-8.93c1.13-1.49,2.71-3.93,3.78-7.31c1.73-5.45,1.87-10.5,0.76-12.18
						C318.47,239.78,318.09,240.91,318.09,238.47z"/>
				</g>
			</g>
		</g>
		<g>
			<g>
				<g>
					<path class="st4" d="M337.74,212.99c-2.52,0-2.39,0-4.91,0c-0.9-0.35-5.13-0.79-6.42,0c-0.8,0.49-1.34,1.35-2.27,5.68
						c-0.97,4.54-2.64,10.54-2.64,10.55c0.32,0.81,1.15,1.83,3.02,3.25c0.52,0.39,2.97,0.57,4.91,0.81c2.88,0.37,2.78-0.34,3.4-0.81
						"/>
				</g>
			</g>
		</g>
		<g>
			<g>
				<g>
					<path class="st5" d="M267.83,153.74c2.35-0.03,5.4,0,8.97,0.24c1.55,0.11,5.76,0.43,11.59,1.42
						c2.82,0.48,18.27,4.16,18.27,4.16s-0.76-4.16,3.05-5.83c0,0-0.76,4.16,0,5.83c0,0,3.05,2.5,4.57,9.16
						c1.52,6.66,5.33,19.99,0,30.81c1.29,2.36,3,6.18,3.59,11.18c0.18,1.47,0.19,2.53,0.21,3.81c0.15,10.16-2.28,19.29-2.29,19.29
						c0,0,0-0.02,0.02-0.13c0.26-1.69,1.94-12.84,0-21.1c-0.62-2.66-1.03-4.42-2.27-6.49c-1.9-3.19-3.63-3.6-3.78-5.68
						c-0.16-2.24,1.76-2.94,3.02-6.49c0.19-0.54,0.65-1.95,0.76-6.49c0.13-5.79,0.23-10.14-1.51-15.42
						c-0.92-2.78-1.7-5.16-3.78-7.31c-2.35-2.43-4.99-3.14-9.07-4.06c-10.57-2.39-16.69-3.03-24.18-4.87
						C271.85,154.99,269.33,154.22,267.83,153.74z"/>
				</g>
			</g>
		</g>
		<g>
			<g>
				<g>
					<path class="st5" d="M248.56,197.97c-1.68-0.16-4.41-0.21-7.56,0.81c-2.08,0.67-4.66,1.51-6.8,4.06
						c-2.54,3.02-2.94,6.62-3.02,8.12c-0.21-0.57-2.26-6.45,0.76-10.55c1.53-2.08,3.66-2.74,5.29-3.25
						C242.07,195.66,246.41,197.07,248.56,197.97z"/>
				</g>
			</g>
		</g>
		<g>
			<g>
				<g>
					<path class="st5" d="M253.85,236.12c-0.01,0.37-2.55-0.03-6.05,1.62c-0.8,0.38-2.76,1.33-4.53,3.25
						c-3.12,3.37-3.5,7.39-3.78,7.31c-0.28-0.09-0.09-4.24,2.27-8.12c0.75-1.23,1.79-2.94,3.78-4.06
						C249.36,233.98,253.86,235.62,253.85,236.12z"/>
				</g>
			</g>
		</g>
		<g>
			<g>
				<g>
					<path class="st5" d="M267.46,266.56c3.4,0.51,7.91,1.04,13.22,1.22c8.19,0.27,7.86-0.62,18.89-0.81
						c8.68-0.15,10.69,0.37,13.6-1.62c4.35-2.98,5.7-8.16,6.05-9.74c0.24-1.1,1.68-8.23-2.27-12.99c-2-2.41-4.7-3.4-8.31-4.06
						c-13.49-2.47-20.65,3.11-34.76,2.44c-4.6-0.22-8.31-1.03-10.58-1.62c5.81,0.48,8.83,0.2,9.07-0.81
						c0.13-0.57-0.62-1.39-2.27-2.44c1.55,0.6,3.9,1.35,6.8,1.62c4.63,0.44,6.01-0.77,12.09-1.62c6.27-0.88,7.11,0.08,16.63-0.81
						c4.86-0.45,5.64,0.03,6.8-0.81c4.55-3.32,4.16-15.83,4.16-16.64c0-1.22-2.92-7.67-3.4-8.52c-1.71-3.03-3.95-4.79-5.29-5.68
						c-7.97,0.76-17.41,1.01-27.96,0c-7.24-0.7-13.82-1.87-19.65-3.25c7.81,0,15.62,0,23.43,0c8.06,0,16.12,0,24.18,0
						c1.96-1.54,2.7-3.13,3.02-4.06c0.68-1.99,0.5-4.11,0.14-8.35c-0.06-0.72-0.08-0.77-0.14-1.39c-0.2-2.19-0.31-5.19,0-8.93
						c0.94,8.03,1.95,16.15,3.02,24.35c0.9,6.87,3.12,11.92,3.4,15.83c0.64,8.81-1.31,11.77,1.13,16.64
						c1.89,3.76,4.45,7.32,4.53,12.99c0.09,6.51-2.27,11.36-2.27,11.36c-1.51,3.11-2.91,3.98-3.02,6.49
						c-0.14,3.12,1.89,4.46,3.02,7.31c2.21,5.54-0.21,13.69-4.53,17.86c-4.24,4.08-9.71,3.77-18.89,3.25
						c-3.66-0.21-7.22-0.95-14.36-2.43c-4.43-0.92-12.17-2.53-12.09-3.25c0.08-0.68,5.88-0.76,11.34,0
						c3.41,0.48,3.51,0.84,7.56,1.62c6.28,1.21,10.72,2.06,15.87,0.81c2.97-0.72,6.43-1.56,9.07-4.87c2.82-3.53,4.24-9.3,2.27-13.8
						c-0.47-1.07-1.05-1.88-1.51-2.43c-9.82,2.02-22.96,3.19-37.78,0C274.01,268.62,270.61,267.64,267.46,266.56z"/>
				</g>
			</g>
		</g>
	</g>
</g>
<g id="Typography">
	<g id="neon_lightning" class="st6">
		<path class="st7" d="M131.14,419.05v-98.03h7.94v98.03H131.14z M169.19,328.96h-38.05v-7.94h38.05V328.96z M169.19,351.64h-38.05
			v-7.94h38.05V351.64z M146.13,351.51v-1.13l23.06,25.58l-5.67,5.67l-27.47-30.11h2.14H146.13z M161.25,351.64v-30.62h7.94v30.62
			H161.25z M161.25,419.05v-43.09h7.94v43.09H161.25z"/>
		<path class="st7" d="M219.72,328.83h-40.95v-7.94h40.95V328.83z M178.77,419.05v-98.03h7.81v98.03H178.77z M219.72,419.05h-39.31
			v-7.94h39.31V419.05z M219.84,351.64h-39.31v-7.94h39.31V351.64z"/>
		<path class="st7" d="M229.17,419.05v-97.9h7.94v97.9H229.17z M270.12,329.09h-40.95v-7.94h40.95V329.09z M270.24,351.77h-39.19
			v-7.81h39.19V351.77z"/>
		<path class="st7" d="M279.82,419.05v-98.03h7.81v98.03H279.82z M309.8,411.11v7.94h-29.99v-7.94H309.8z"/>
		<path class="st7" d="M360.2,328.83h-40.95v-7.94h40.95V328.83z M319.25,419.05v-98.03h7.81v98.03H319.25z M360.2,419.05h-39.31
			v-7.94h39.31V419.05z M360.33,351.64h-39.31v-7.94h39.31V351.64z"/>
		<path class="st7" d="M407.7,328.96h-38.05v-7.94h38.05V328.96z M369.65,419.05v-97.9h7.94v97.9H369.65z M407.7,419.05h-38.05
			v-7.94h38.05V419.05z"/>
		<path class="st7" d="M452.56,328.96h-35.41v-7.94h35.41V328.96z M430.89,418.92v-97.9h7.94v97.9H430.89z"/>
	</g>
	<g id="Reflect">
		<path class="st8" d="M131.14,419.05v-98.03h7.94v98.03H131.14z M169.19,328.96h-38.05v-7.94h38.05V328.96z M169.19,351.64h-38.05
			v-7.94h38.05V351.64z M146.13,351.51v-1.13l23.06,25.58l-5.67,5.67l-27.47-30.11h2.14H146.13z M161.25,351.64v-30.62h7.94v30.62
			H161.25z M161.25,419.05v-43.09h7.94v43.09H161.25z"/>
		<path class="st8" d="M219.72,328.83h-40.95v-7.94h40.95V328.83z M178.77,419.05v-98.03h7.81v98.03H178.77z M219.72,419.05h-39.31
			v-7.94h39.31V419.05z M219.84,351.64h-39.31v-7.94h39.31V351.64z"/>
		<path class="st8" d="M229.17,419.05v-97.9h7.94v97.9H229.17z M270.12,329.09h-40.95v-7.94h40.95V329.09z M270.24,351.77h-39.19
			v-7.81h39.19V351.77z"/>
		<path class="st8" d="M279.82,419.05v-98.03h7.81v98.03H279.82z M309.8,411.11v7.94h-29.99v-7.94H309.8z"/>
		<path class="st8" d="M360.2,328.83h-40.95v-7.94h40.95V328.83z M319.25,419.05v-98.03h7.81v98.03H319.25z M360.2,419.05h-39.31
			v-7.94h39.31V419.05z M360.33,351.64h-39.31v-7.94h39.31V351.64z"/>
		<path class="st8" d="M407.7,328.96h-38.05v-7.94h38.05V328.96z M369.65,419.05v-97.9h7.94v97.9H369.65z M407.7,419.05h-38.05
			v-7.94h38.05V419.05z"/>
		<path class="st8" d="M452.56,328.96h-35.41v-7.94h35.41V328.96z M430.89,418.92v-97.9h7.94v97.9H430.89z"/>
	</g>
	<g id="inner_light" class="st9">
		<path class="st10" d="M314.55,238.46c2.79,1.29,2.74,3.08,5.44,3.67c1.14,0.25,2.34,0.17,3.7,0.05c1.37-0.12,2.62-0.23,3.73-0.75
			c2.16-1.01,3.27-3.3,3.9-4.75c4.14-9.4,3.37-16.44,7.83-25.13c0.73-1.41,2.05-3.77,3.37-7.42c1.63-4.51,1.86-7.15,1.92-8.35
			c0.13-2.63-0.23-4.64-0.48-5.92c-1.54-7.89-4.17-15.63-5.28-18.91c-2.7-8.03-4.06-12.07-5.5-16.67
			c-2.33-7.47-3.04-10.31-5.73-13.4c-1.4-1.61-4.25-4.33-8.45-5.5c-5.53-1.54-10.26,0.47-15.01,2.49c-4.23,1.8-8.03,4.27-9.53,5.24
			c-4.18,2.71-6.36,4.73-10.25,5.2c-0.24,0.03-0.14,0.01-4.69-0.06c-7.99-0.13-6.92-0.05-8.59-0.12c-5.34-0.22-5.79-0.62-7.81-0.11
			c-1.3,0.33-0.87,0.43-5.46,2.58c-2.27,1.06-4.56,2.06-6.07,2.7c-1.14,0.49-2.14,1.3-2.91,2.36c-0.54,0.74-1.16,1.48-1.89,1.84
			c-1.27,0.62-1.91-0.05-3.88-0.05c-2.13,0-3.66,0.78-5.41,1.68c-0.57,0.29-3.72,1.94-6.12,5.15c-3.69,4.93-4.62,12.21-3.53,18.04
			c1.09,5.87,3.91,8.6,2.52,12.74c-0.52,1.56-1.09,1.65-2.2,4.16c-0.55,1.24-1.54,3.76-2.11,8.3c-1,7.99-1.68,13.46,1.1,18.06
			c1.82,3,4.19,4.11,6.86,8.97c0.46,0.84,1.15,2.19,1.54,4.03c0.56,2.61,0.21,4.67,0.08,5.58c-0.15,1.09-1.45,10.32,2.43,15.77
			c0.31,0.43,0.07,0.03,5.92,6.29c0.8,0.86,1.6,1.73,2.21,3.12c0.96,2.18,0.76,4.02,0.77,5.39c0.04,3.82,1.8,6.78,3.69,9.95
			c1.11,1.87,3.48,5.85,7.95,8.39c2.87,1.64,5.78,1.92,11.47,2.4c4.37,0.37,5.6,0.13,14.34,0.2c6.66,0.05,6.78,0.2,11.47,0.16
			c11.67-0.11,13.69-1.06,15.12-2.04c3.9-2.66,5.54-6.89,6.02-8.2c1.49-4.01,1.2-7.46,1.04-9.12c-0.38-3.95-1.73-6.89-2.62-8.5
			c1.14-1.41,2.74-3.72,3.89-6.93c1.86-5.23,2.18-10.11,1.15-11.76C316.97,243.68,314.47,240.86,314.55,238.46z"/>
		<path class="st10" d="M337.01,217.29c-2.5-0.03-2.38-0.03-4.88-0.07c-0.88-0.37-5.07-0.87-6.39-0.09
			c-0.81,0.48-1.38,1.34-2.46,5.69c-1.12,4.53-2.99,10.48-2.99,10.49c0.28,0.81,1.07,1.82,2.86,3.25c0.49,0.39,2.9,0.6,4.8,0.87
			c2.81,0.4,2.75-0.3,3.37-0.76"/>
	</g>
</g>
</svg>
